<svg xmlns="http://www.w3.org/2000/svg" width="33.576" height="32.141" viewBox="0 0 33.576 32.141">
  <g id="Icon_feather-shopping-cart" data-name="Icon feather-shopping-cart" transform="translate(1 1)">
    <path id="Trazado_1583" data-name="Trazado 1583" d="M13.435,33.871a2.435,2.435,0,1,1,2.435-2.435A2.438,2.438,0,0,1,13.435,33.871Zm0-2.871a.435.435,0,1,0,.435.435A.436.436,0,0,0,13.435,31Z" transform="translate(-1.953 -2.73)" fill="#683a83"/>
    <path id="Trazado_1584" data-name="Trazado 1584" d="M29.935,33.871a2.435,2.435,0,1,1,2.435-2.435A2.438,2.438,0,0,1,29.935,33.871Zm0-2.871a.435.435,0,1,0,.435.435A.436.436,0,0,0,29.935,31Z" transform="translate(-2.665 -2.73)" fill="#683a83"/>
    <path id="Trazado_1585" data-name="Trazado 1585" d="M27.966,24.03h-14a3.867,3.867,0,0,1-3.86-3.116L7.707,8.922q-.012-.048-.019-.1L6.421,2.5H1.5a1,1,0,1,1,0-2H7.241a1,1,0,0,1,.981.8L9.5,7.676H33.076a1,1,0,0,1,.982,1.187l-2.3,12.042v.007A3.867,3.867,0,0,1,27.966,24.03Zm-14.007-2H27.965a1.868,1.868,0,0,0,1.833-1.5L31.868,9.676H9.9l2.171,10.846a1.869,1.869,0,0,0,1.871,1.507Z" transform="translate(-1.5 -1.5)" fill="#683a83"/>
  </g>
</svg>
