<svg xmlns="http://www.w3.org/2000/svg" width="33.355" height="29.348" viewBox="0 0 33.355 29.348">
  <path id="Icon_feather-heart" data-name="Icon feather-heart" d="M25.425,3.5a9.252,9.252,0,0,1,6.542,15.8l-13.26,13.26a1,1,0,0,1-1.414,0L4.033,19.292A9.252,9.252,0,1,1,17.117,6.208L18,7.091l.883-.883A9.189,9.189,0,0,1,25.425,3.5ZM18,30.431,30.553,17.878A7.252,7.252,0,1,0,20.3,7.622l-1.59,1.59a1,1,0,0,1-1.414,0L15.7,7.622A7.252,7.252,0,1,0,5.447,17.878Z" transform="translate(-1.323 -3.497)" fill="#683a83"/>
</svg>
