<svg xmlns="http://www.w3.org/2000/svg" xmlns:xlink="http://www.w3.org/1999/xlink" width="486" height="276" viewBox="0 0 486 276">
  <defs>
    <clipPath id="clip-path">
      <rect id="Rectángulo_4242" data-name="Rectángulo 4242" width="486" height="276" transform="translate(0 0)" fill="none"/>
    </clipPath>
    <clipPath id="clip-path-3">
      <rect id="Rectángulo_4223" data-name="Rectángulo 4223" width="486.945" height="5.576" fill="none"/>
    </clipPath>
    <clipPath id="clip-path-4">
      <rect id="Rectángulo_4224" data-name="Rectángulo 4224" width="486.945" height="16.17" fill="none"/>
    </clipPath>
    <clipPath id="clip-path-5">
      <rect id="Rectángulo_4225" data-name="Rectángulo 4225" width="486.945" height="21.747" fill="none"/>
    </clipPath>
  </defs>
  <g id="Grupo_18885" data-name="Grupo 18885" transform="translate(-717 -4438)">
    <rect id="Rectángulo_1612" data-name="Rectángulo 1612" width="486" height="276" transform="translate(717 4438)" fill="#f4e0ff"/>
    <g id="Grupo_18884" data-name="Grupo 18884" transform="translate(717 4438)">
      <g id="Grupo_18883" data-name="Grupo 18883" clip-path="url(#clip-path)">
        <g id="Grupo_18882" data-name="Grupo 18882">
          <g id="Grupo_18881" data-name="Grupo 18881" clip-path="url(#clip-path)">
            <g id="Grupo_18829" data-name="Grupo 18829" transform="translate(0 270.383)" opacity="0.55">
              <g id="Grupo_18828" data-name="Grupo 18828">
                <g id="Grupo_18827" data-name="Grupo 18827" clip-path="url(#clip-path-3)">
                  <path id="Trazado_4826" data-name="Trazado 4826" d="M365.21,705.451h0l24.857,5.576H340.353Zm-96.88,5.576-24.853-5.576-24.856,5.576ZM0,705.451v5.576H24.857Zm486.945,5.576v-5.576l-24.853,5.576Zm-340.354,0-24.857-5.576L96.88,711.027Z" transform="translate(0 -705.451)" fill="#fff"/>
                </g>
              </g>
            </g>
            <g id="Grupo_18832" data-name="Grupo 18832" opacity="0.55">
              <g id="Grupo_18831" data-name="Grupo 18831">
                <g id="Grupo_18830" data-name="Grupo 18830" clip-path="url(#clip-path-4)">
                  <path id="Trazado_4827" data-name="Trazado 4827" d="M462.092,0,426.084,8.079,390.069,0H340.353L304.338,8.079,268.33,0h-49.71L182.6,8.079,146.591,0H96.88L60.872,8.079,24.857,0H0V2.518L60.872,16.17,121.734,2.518,182.6,16.17,243.477,2.518,304.338,16.17,365.21,2.518,426.084,16.17,486.945,2.518V0Z" transform="translate(0)" fill="#fff"/>
                </g>
              </g>
            </g>
            <g id="Grupo_18835" data-name="Grupo 18835" transform="translate(0 254.15)" opacity="0.55">
              <g id="Grupo_18834" data-name="Grupo 18834">
                <g id="Grupo_18833" data-name="Grupo 18833" clip-path="url(#clip-path-5)">
                  <path id="Trazado_4828" data-name="Trazado 4828" d="M121.734,671.192,182.6,684.845l60.872-13.653,60.861,13.653,60.872-13.653,60.872,13.653,60.863-13.653V663.1l-60.863,13.655L365.211,663.1h0l-60.872,13.655L243.477,663.1,182.6,676.754,121.734,663.1,60.871,676.754,0,663.1v8.094l60.871,13.653Z" transform="translate(0 -663.098)" fill="#fff"/>
                </g>
              </g>
            </g>
            <g id="Grupo_18838" data-name="Grupo 18838" transform="translate(0 237.917)" opacity="0.55">
              <g id="Grupo_18837" data-name="Grupo 18837">
                <g id="Grupo_18836" data-name="Grupo 18836" clip-path="url(#clip-path-5)">
                  <path id="Trazado_4829" data-name="Trazado 4829" d="M121.734,628.839,182.6,642.492l60.872-13.653,60.861,13.653,60.872-13.653,60.872,13.653,60.863-13.653v-8.094L426.082,634.4l-60.871-13.656h0L304.338,634.4l-60.861-13.656L182.6,634.4l-60.871-13.656L60.871,634.4,0,620.745v8.094l60.871,13.653Z" transform="translate(0 -620.745)" fill="#fff"/>
                </g>
              </g>
            </g>
            <g id="Grupo_18841" data-name="Grupo 18841" transform="translate(0 221.684)" opacity="0.55">
              <g id="Grupo_18840" data-name="Grupo 18840">
                <g id="Grupo_18839" data-name="Grupo 18839" clip-path="url(#clip-path-5)">
                  <path id="Trazado_4830" data-name="Trazado 4830" d="M121.734,586.486,182.6,600.139l60.872-13.653,60.861,13.653,60.872-13.653,60.872,13.653,60.863-13.653v-8.094l-60.863,13.655-60.871-13.655h0l-60.872,13.655-60.861-13.655L182.6,592.048l-60.871-13.655L60.871,592.048,0,578.392v8.094l60.871,13.653Z" transform="translate(0 -578.392)" fill="#fff"/>
                </g>
              </g>
            </g>
            <g id="Grupo_18844" data-name="Grupo 18844" transform="translate(0 205.451)" opacity="0.55">
              <g id="Grupo_18843" data-name="Grupo 18843">
                <g id="Grupo_18842" data-name="Grupo 18842" clip-path="url(#clip-path-5)">
                  <path id="Trazado_4831" data-name="Trazado 4831" d="M121.734,544.133,182.6,557.786l60.872-13.653,60.861,13.653,60.872-13.653,60.872,13.653,60.863-13.653v-8.094L426.082,549.7l-60.871-13.656h0L304.338,549.7l-60.861-13.656L182.6,549.7l-60.871-13.656L60.871,549.7,0,536.039v8.094l60.871,13.653Z" transform="translate(0 -536.039)" fill="#fff"/>
                </g>
              </g>
            </g>
            <g id="Grupo_18847" data-name="Grupo 18847" transform="translate(0 189.218)" opacity="0.55">
              <g id="Grupo_18846" data-name="Grupo 18846">
                <g id="Grupo_18845" data-name="Grupo 18845" clip-path="url(#clip-path-5)">
                  <path id="Trazado_4832" data-name="Trazado 4832" d="M121.734,501.781,182.6,515.433l60.872-13.653,60.861,13.653,60.872-13.653,60.872,13.653,60.863-13.653v-8.094l-60.863,13.655-60.871-13.655h0l-60.872,13.655-60.861-13.655L182.6,507.342l-60.871-13.655L60.871,507.342,0,493.687v8.094l60.871,13.653Z" transform="translate(0 -493.686)" fill="#fff"/>
                </g>
              </g>
            </g>
            <g id="Grupo_18850" data-name="Grupo 18850" transform="translate(0 172.985)" opacity="0.55">
              <g id="Grupo_18849" data-name="Grupo 18849">
                <g id="Grupo_18848" data-name="Grupo 18848" clip-path="url(#clip-path-5)">
                  <path id="Trazado_4833" data-name="Trazado 4833" d="M121.734,459.428,182.6,473.08l60.872-13.653,60.861,13.653,60.872-13.653,60.872,13.653,60.863-13.653v-8.094l-60.863,13.655-60.871-13.655h0l-60.872,13.655-60.861-13.655L182.6,464.989l-60.871-13.655L60.871,464.989,0,451.334v8.094L60.871,473.08Z" transform="translate(0 -451.333)" fill="#fff"/>
                </g>
              </g>
            </g>
            <g id="Grupo_18853" data-name="Grupo 18853" transform="translate(0 156.753)" opacity="0.55">
              <g id="Grupo_18852" data-name="Grupo 18852">
                <g id="Grupo_18851" data-name="Grupo 18851" clip-path="url(#clip-path-5)">
                  <path id="Trazado_4834" data-name="Trazado 4834" d="M121.734,417.075,182.6,430.727l60.872-13.653,60.861,13.653,60.872-13.653,60.872,13.653,60.863-13.653v-8.094l-60.863,13.655-60.871-13.655h0l-60.872,13.655-60.861-13.655L182.6,422.636l-60.871-13.655L60.871,422.636,0,408.981v8.094l60.871,13.653Z" transform="translate(0 -408.98)" fill="#fff"/>
                </g>
              </g>
            </g>
            <g id="Grupo_18856" data-name="Grupo 18856" transform="translate(0 140.52)" opacity="0.55">
              <g id="Grupo_18855" data-name="Grupo 18855">
                <g id="Grupo_18854" data-name="Grupo 18854" clip-path="url(#clip-path-5)">
                  <path id="Trazado_4835" data-name="Trazado 4835" d="M121.734,374.722,182.6,388.374l60.872-13.653,60.861,13.653,60.872-13.653,60.872,13.653,60.863-13.653v-8.094l-60.863,13.655-60.871-13.655h0l-60.872,13.655-60.861-13.655L182.6,380.283l-60.871-13.655L60.871,380.283,0,366.628v8.094l60.871,13.653Z" transform="translate(0 -366.627)" fill="#fff"/>
                </g>
              </g>
            </g>
            <g id="Grupo_18859" data-name="Grupo 18859" transform="translate(0 124.287)" opacity="0.55">
              <g id="Grupo_18858" data-name="Grupo 18858">
                <g id="Grupo_18857" data-name="Grupo 18857" clip-path="url(#clip-path-5)">
                  <path id="Trazado_4836" data-name="Trazado 4836" d="M121.734,332.369,182.6,346.022l60.872-13.653,60.861,13.653,60.872-13.653,60.872,13.653,60.863-13.653v-8.094L426.082,337.93l-60.871-13.655h0L304.338,337.93l-60.861-13.655L182.6,337.93l-60.871-13.655L60.871,337.93,0,324.275v8.094l60.871,13.653Z" transform="translate(0 -324.275)" fill="#fff"/>
                </g>
              </g>
            </g>
            <g id="Grupo_18862" data-name="Grupo 18862" transform="translate(0 108.054)" opacity="0.55">
              <g id="Grupo_18861" data-name="Grupo 18861">
                <g id="Grupo_18860" data-name="Grupo 18860" clip-path="url(#clip-path-5)">
                  <path id="Trazado_4837" data-name="Trazado 4837" d="M121.734,290.016,182.6,303.669l60.872-13.653,60.861,13.653,60.872-13.653,60.872,13.653,60.863-13.653v-8.094l-60.863,13.655-60.871-13.655h0l-60.872,13.655-60.861-13.655L182.6,295.577l-60.871-13.655L60.871,295.577,0,281.922v8.094l60.871,13.653Z" transform="translate(0 -281.922)" fill="#fff"/>
                </g>
              </g>
            </g>
            <g id="Grupo_18865" data-name="Grupo 18865" transform="translate(0 91.821)" opacity="0.55">
              <g id="Grupo_18864" data-name="Grupo 18864">
                <g id="Grupo_18863" data-name="Grupo 18863" clip-path="url(#clip-path-5)">
                  <path id="Trazado_4838" data-name="Trazado 4838" d="M121.734,247.663,182.6,261.316l60.872-13.653,60.861,13.653,60.872-13.653,60.872,13.653,60.863-13.653v-8.094l-60.863,13.655-60.871-13.655h0l-60.872,13.655-60.861-13.655L182.6,253.224l-60.871-13.655L60.871,253.224,0,239.569v8.094l60.871,13.653Z" transform="translate(0 -239.569)" fill="#fff"/>
                </g>
              </g>
            </g>
            <g id="Grupo_18868" data-name="Grupo 18868" transform="translate(0 75.588)" opacity="0.55">
              <g id="Grupo_18867" data-name="Grupo 18867">
                <g id="Grupo_18866" data-name="Grupo 18866" clip-path="url(#clip-path-5)">
                  <path id="Trazado_4839" data-name="Trazado 4839" d="M121.734,205.31,182.6,218.963l60.872-13.653,60.861,13.653L365.21,205.31l60.872,13.653,60.863-13.653v-8.094l-60.863,13.655-60.871-13.655h0l-60.872,13.655-60.861-13.655L182.6,210.871l-60.871-13.655L60.871,210.871,0,197.216v8.094l60.871,13.653Z" transform="translate(0 -197.216)" fill="#fff"/>
                </g>
              </g>
            </g>
            <g id="Grupo_18871" data-name="Grupo 18871" transform="translate(0 59.355)" opacity="0.55">
              <g id="Grupo_18870" data-name="Grupo 18870">
                <g id="Grupo_18869" data-name="Grupo 18869" clip-path="url(#clip-path-5)">
                  <path id="Trazado_4840" data-name="Trazado 4840" d="M121.734,162.957,182.6,176.61l60.872-13.653,60.861,13.653,60.872-13.653,60.872,13.653,60.863-13.653v-8.094l-60.863,13.655-60.871-13.655h0l-60.872,13.655-60.861-13.655L182.6,168.518l-60.871-13.655L60.871,168.518,0,154.863v8.094L60.871,176.61Z" transform="translate(0 -154.863)" fill="#fff"/>
                </g>
              </g>
            </g>
            <g id="Grupo_18874" data-name="Grupo 18874" transform="translate(0 43.122)" opacity="0.55">
              <g id="Grupo_18873" data-name="Grupo 18873">
                <g id="Grupo_18872" data-name="Grupo 18872" clip-path="url(#clip-path-5)">
                  <path id="Trazado_4841" data-name="Trazado 4841" d="M121.734,120.6,182.6,134.257,243.477,120.6l60.861,13.653L365.21,120.6l60.872,13.653L486.945,120.6V112.51l-60.863,13.655L365.211,112.51h0l-60.872,13.655L243.477,112.51,182.6,126.166,121.734,112.51,60.871,126.166,0,112.51V120.6l60.871,13.653Z" transform="translate(0 -112.51)" fill="#fff"/>
                </g>
              </g>
            </g>
            <g id="Grupo_18877" data-name="Grupo 18877" transform="translate(0 26.89)" opacity="0.55">
              <g id="Grupo_18876" data-name="Grupo 18876">
                <g id="Grupo_18875" data-name="Grupo 18875" clip-path="url(#clip-path-5)">
                  <path id="Trazado_4842" data-name="Trazado 4842" d="M121.734,78.251,182.6,91.9l60.872-13.653L304.338,91.9,365.21,78.251,426.082,91.9l60.863-13.653V70.157L426.082,83.813,365.211,70.157h0L304.338,83.813,243.477,70.157,182.6,83.813,121.734,70.157,60.871,83.813,0,70.157v8.094L60.871,91.9Z" transform="translate(0 -70.157)" fill="#fff"/>
                </g>
              </g>
            </g>
            <g id="Grupo_18880" data-name="Grupo 18880" transform="translate(0 10.657)" opacity="0.55">
              <g id="Grupo_18879" data-name="Grupo 18879">
                <g id="Grupo_18878" data-name="Grupo 18878" clip-path="url(#clip-path-5)">
                  <path id="Trazado_4843" data-name="Trazado 4843" d="M121.734,35.9,182.6,49.551,243.477,35.9l60.861,13.653L365.21,35.9l60.872,13.653L486.945,35.9V27.8L426.082,41.46,365.211,27.8h0L304.338,41.46,243.477,27.8,182.6,41.46,121.734,27.8,60.871,41.46,0,27.8V35.9L60.871,49.551Z" transform="translate(0 -27.804)" fill="#fff"/>
                </g>
              </g>
            </g>
          </g>
        </g>
      </g>
    </g>
  </g>
</svg>
