<svg xmlns="http://www.w3.org/2000/svg" xmlns:xlink="http://www.w3.org/1999/xlink" width="486" height="276" viewBox="0 0 486 276">
  <defs>
    <clipPath id="clip-path">
      <rect id="Rect치ngulo_4243" data-name="Rect치ngulo 4243" width="486" height="276" transform="translate(1221 4438)" fill="#fddfea"/>
    </clipPath>
  </defs>
  <g id="Enmascarar_grupo_2" data-name="Enmascarar grupo 2" transform="translate(-1221 -4438)" clip-path="url(#clip-path)">
    <rect id="Rect치ngulo_1612" data-name="Rect치ngulo 1612" width="486" height="276" transform="translate(1221 4438)" fill="#fddfea"/>
    <g id="Grupo_18886" data-name="Grupo 18886" transform="translate(1221 4438)" opacity="0.717">
      <path id="Trazado_4844" data-name="Trazado 4844" d="M79.311,199.84l1.776,4.149,4.5.408-3.4,2.972,1,4.4-3.876-2.313-3.876,2.313,1-4.4-3.4-2.972,4.495-.408Z" transform="translate(-45.041 -123.235)" fill="#fff"/>
      <path id="Trazado_4845" data-name="Trazado 4845" d="M259.311,199.84l1.776,4.149,4.5.408-3.4,2.972,1,4.4-3.876-2.313-3.876,2.313,1-4.4-3.4-2.972,4.495-.408Z" transform="translate(-156.041 -123.235)" fill="#fff"/>
      <path id="Trazado_4943" data-name="Trazado 4943" d="M259.311,199.84l1.776,4.149,4.5.408-3.4,2.972,1,4.4-3.876-2.313-3.876,2.313,1-4.4-3.4-2.972,4.495-.408Z" transform="translate(-18.041 -123.235)" fill="#fff"/>
      <path id="Trazado_4987" data-name="Trazado 4987" d="M259.311,199.84l1.776,4.149,4.5.408-3.4,2.972,1,4.4-3.876-2.313-3.876,2.313,1-4.4-3.4-2.972,4.495-.408Z" transform="translate(119.959 -123.235)" fill="#fff"/>
      <path id="Trazado_4906" data-name="Trazado 4906" d="M259.311,199.84l1.776,4.149,4.5.408-3.4,2.972,1,4.4-3.876-2.313-3.876,2.313,1-4.4-3.4-2.972,4.495-.408Z" transform="translate(-87.041 -123.235)" fill="#fff"/>
      <path id="Trazado_4944" data-name="Trazado 4944" d="M259.311,199.84l1.776,4.149,4.5.408-3.4,2.972,1,4.4-3.876-2.313-3.876,2.313,1-4.4-3.4-2.972,4.495-.408Z" transform="translate(50.959 -123.235)" fill="#fff"/>
      <path id="Trazado_4988" data-name="Trazado 4988" d="M259.311,199.84l1.776,4.149,4.5.408-3.4,2.972,1,4.4-3.876-2.313-3.876,2.313,1-4.4-3.4-2.972,4.495-.408Z" transform="translate(188.959 -123.235)" fill="#fff"/>
      <path id="Trazado_4846" data-name="Trazado 4846" d="M0,190.723l1.979,4.621,5.007.455L3.2,199.109l1.116,4.9L0,201.435v2.678l7.753,4.625-2-8.8,6.794-5.944-8.99-.815L0,184.879Z" transform="translate(0 -114.009)" fill="#fff"/>
      <path id="Trazado_4847" data-name="Trazado 4847" d="M159.821,184.88l3.553,8.3,8.99.815-6.794,5.944,2,8.8-7.752-4.625-7.753,4.625,2-8.8-6.794-5.944,8.99-.815ZM155.5,204.011l4.317-2.576,4.318,2.576-1.116-4.9,3.784-3.31-5.007-.454-1.979-4.621-1.979,4.621-5.007.454,3.784,3.31Z" transform="translate(-90.821 -114.009)" fill="#fff"/>
      <path id="Trazado_4948" data-name="Trazado 4948" d="M159.821,184.88l3.553,8.3,8.99.815-6.794,5.944,2,8.8-7.752-4.625-7.753,4.625,2-8.8-6.794-5.944,8.99-.815ZM155.5,204.011l4.317-2.576,4.318,2.576-1.116-4.9,3.784-3.31-5.007-.454-1.979-4.621-1.979,4.621-5.007.454,3.784,3.31Z" transform="translate(47.179 -114.009)" fill="#fff"/>
      <path id="Trazado_4992" data-name="Trazado 4992" d="M159.821,184.88l3.553,8.3,8.99.815-6.794,5.944,2,8.8-7.752-4.625-7.753,4.625,2-8.8-6.794-5.944,8.99-.815ZM155.5,204.011l4.317-2.576,4.318,2.576-1.116-4.9,3.784-3.31-5.007-.454-1.979-4.621-1.979,4.621-5.007.454,3.784,3.31Z" transform="translate(185.179 -114.009)" fill="#fff"/>
      <path id="Trazado_5016" data-name="Trazado 5016" d="M159.821,184.88l3.553,8.3,8.99.815-6.794,5.944,2,8.8-7.752-4.625-7.753,4.625,2-8.8-6.794-5.944,8.99-.815ZM155.5,204.011l4.317-2.576,4.318,2.576-1.116-4.9,3.784-3.31-5.007-.454-1.979-4.621-1.979,4.621-5.007.454,3.784,3.31Z" transform="translate(323.179 -114.009)" fill="#fff"/>
      <path id="Trazado_4908" data-name="Trazado 4908" d="M159.821,184.88l3.553,8.3,8.99.815-6.794,5.944,2,8.8-7.752-4.625-7.753,4.625,2-8.8-6.794-5.944,8.99-.815ZM155.5,204.011l4.317-2.576,4.318,2.576-1.116-4.9,3.784-3.31-5.007-.454-1.979-4.621-1.979,4.621-5.007.454,3.784,3.31Z" transform="translate(-21.821 -114.009)" fill="#fff"/>
      <path id="Trazado_4942" data-name="Trazado 4942" d="M159.821,184.88l3.553,8.3,8.99.815-6.794,5.944,2,8.8-7.752-4.625-7.753,4.625,2-8.8-6.794-5.944,8.99-.815ZM155.5,204.011l4.317-2.576,4.318,2.576-1.116-4.9,3.784-3.31-5.007-.454-1.979-4.621-1.979,4.621-5.007.454,3.784,3.31Z" transform="translate(116.179 -114.009)" fill="#fff"/>
      <path id="Trazado_4986" data-name="Trazado 4986" d="M159.821,184.88l3.553,8.3,8.99.815-6.794,5.944,2,8.8-7.752-4.625-7.753,4.625,2-8.8-6.794-5.944,8.99-.815ZM155.5,204.011l4.317-2.576,4.318,2.576-1.116-4.9,3.784-3.31-5.007-.454-1.979-4.621-1.979,4.621-5.007.454,3.784,3.31Z" transform="translate(254.179 -114.009)" fill="#fff"/>
      <path id="Trazado_4849" data-name="Trazado 4849" d="M79.311,343.84l1.776,4.149,4.5.407-3.4,2.972,1,4.4-3.876-2.313-3.876,2.313,1-4.4-3.4-2.972,4.495-.407Z" transform="translate(-45.041 -212.035)" fill="#fff"/>
      <path id="Trazado_4850" data-name="Trazado 4850" d="M259.311,343.84l1.776,4.149,4.5.407-3.4,2.972,1,4.4-3.876-2.313-3.876,2.313,1-4.4-3.4-2.972,4.495-.407Z" transform="translate(-156.041 -212.035)" fill="#fff"/>
      <path id="Trazado_4935" data-name="Trazado 4935" d="M259.311,343.84l1.776,4.149,4.5.407-3.4,2.972,1,4.4-3.876-2.313-3.876,2.313,1-4.4-3.4-2.972,4.495-.407Z" transform="translate(-18.041 -212.035)" fill="#fff"/>
      <path id="Trazado_4979" data-name="Trazado 4979" d="M259.311,343.84l1.776,4.149,4.5.407-3.4,2.972,1,4.4-3.876-2.313-3.876,2.313,1-4.4-3.4-2.972,4.495-.407Z" transform="translate(119.959 -212.035)" fill="#fff"/>
      <path id="Trazado_4904" data-name="Trazado 4904" d="M259.311,343.84l1.776,4.149,4.5.407-3.4,2.972,1,4.4-3.876-2.313-3.876,2.313,1-4.4-3.4-2.972,4.495-.407Z" transform="translate(-87.041 -212.035)" fill="#fff"/>
      <path id="Trazado_4936" data-name="Trazado 4936" d="M259.311,343.84l1.776,4.149,4.5.407-3.4,2.972,1,4.4-3.876-2.313-3.876,2.313,1-4.4-3.4-2.972,4.495-.407Z" transform="translate(50.959 -212.035)" fill="#fff"/>
      <path id="Trazado_4980" data-name="Trazado 4980" d="M259.311,343.84l1.776,4.149,4.5.407-3.4,2.972,1,4.4-3.876-2.313-3.876,2.313,1-4.4-3.4-2.972,4.495-.407Z" transform="translate(188.959 -212.035)" fill="#fff"/>
      <path id="Trazado_4851" data-name="Trazado 4851" d="M0,334.723l1.979,4.621,5.007.455L3.2,343.109l1.116,4.9L0,345.435v2.678l7.753,4.625-2-8.8,6.794-5.944-8.99-.815L0,328.879Z" transform="translate(0 -202.809)" fill="#fff"/>
      <path id="Trazado_4852" data-name="Trazado 4852" d="M159.821,328.88l3.553,8.3,8.99.815-6.794,5.944,2,8.8-7.752-4.625-7.753,4.625,2-8.8-6.794-5.944,8.99-.815ZM155.5,348.011l4.317-2.576,4.318,2.576-1.116-4.9,3.784-3.31-5.007-.454-1.979-4.621-1.979,4.621-5.007.454,3.784,3.31Z" transform="translate(-90.821 -202.809)" fill="#fff"/>
      <path id="Trazado_4949" data-name="Trazado 4949" d="M159.821,328.88l3.553,8.3,8.99.815-6.794,5.944,2,8.8-7.752-4.625-7.753,4.625,2-8.8-6.794-5.944,8.99-.815ZM155.5,348.011l4.317-2.576,4.318,2.576-1.116-4.9,3.784-3.31-5.007-.454-1.979-4.621-1.979,4.621-5.007.454,3.784,3.31Z" transform="translate(47.179 -202.809)" fill="#fff"/>
      <path id="Trazado_4993" data-name="Trazado 4993" d="M159.821,328.88l3.553,8.3,8.99.815-6.794,5.944,2,8.8-7.752-4.625-7.753,4.625,2-8.8-6.794-5.944,8.99-.815ZM155.5,348.011l4.317-2.576,4.318,2.576-1.116-4.9,3.784-3.31-5.007-.454-1.979-4.621-1.979,4.621-5.007.454,3.784,3.31Z" transform="translate(185.179 -202.809)" fill="#fff"/>
      <path id="Trazado_5012" data-name="Trazado 5012" d="M159.821,328.88l3.553,8.3,8.99.815-6.794,5.944,2,8.8-7.752-4.625-7.753,4.625,2-8.8-6.794-5.944,8.99-.815ZM155.5,348.011l4.317-2.576,4.318,2.576-1.116-4.9,3.784-3.31-5.007-.454-1.979-4.621-1.979,4.621-5.007.454,3.784,3.31Z" transform="translate(323.179 -202.809)" fill="#fff"/>
      <path id="Trazado_4909" data-name="Trazado 4909" d="M159.821,328.88l3.553,8.3,8.99.815-6.794,5.944,2,8.8-7.752-4.625-7.753,4.625,2-8.8-6.794-5.944,8.99-.815ZM155.5,348.011l4.317-2.576,4.318,2.576-1.116-4.9,3.784-3.31-5.007-.454-1.979-4.621-1.979,4.621-5.007.454,3.784,3.31Z" transform="translate(-21.821 -202.809)" fill="#fff"/>
      <path id="Trazado_4927" data-name="Trazado 4927" d="M159.821,328.88l3.553,8.3,8.99.815-6.794,5.944,2,8.8-7.752-4.625-7.753,4.625,2-8.8-6.794-5.944,8.99-.815ZM155.5,348.011l4.317-2.576,4.318,2.576-1.116-4.9,3.784-3.31-5.007-.454-1.979-4.621-1.979,4.621-5.007.454,3.784,3.31Z" transform="translate(116.179 -202.809)" fill="#fff"/>
      <path id="Trazado_4971" data-name="Trazado 4971" d="M159.821,328.88l3.553,8.3,8.99.815-6.794,5.944,2,8.8-7.752-4.625-7.753,4.625,2-8.8-6.794-5.944,8.99-.815ZM155.5,348.011l4.317-2.576,4.318,2.576-1.116-4.9,3.784-3.31-5.007-.454-1.979-4.621-1.979,4.621-5.007.454,3.784,3.31Z" transform="translate(254.179 -202.809)" fill="#fff"/>
      <path id="Trazado_4854" data-name="Trazado 4854" d="M0,282.458l3.646,2.175-1-4.4,3.4-2.972-4.495-.407L0,273.241Z" transform="translate(0 -168.499)" fill="#fff"/>
      <path id="Trazado_4855" data-name="Trazado 4855" d="M69.821,256.88l3.553,8.3,8.99.815-6.795,5.944,2,8.8-7.753-4.625-7.752,4.625,2-8.8-6.795-5.944,8.99-.815ZM65.5,276.011l4.317-2.576,4.318,2.576-1.116-4.9,3.784-3.31-5.007-.454-1.979-4.621-1.979,4.621-5.007.454,3.784,3.31Z" transform="translate(-35.321 -158.409)" fill="#fff"/>
      <path id="Trazado_4856" data-name="Trazado 4856" d="M249.821,256.88l3.553,8.3,8.99.815-6.794,5.944,2,8.8-7.752-4.625-7.753,4.625,2-8.8-6.794-5.944,8.99-.815ZM245.5,276.011l4.317-2.576,4.318,2.576-1.116-4.9,3.784-3.31-5.007-.454-1.979-4.621-1.979,4.621-5.007.454,3.784,3.31Z" transform="translate(-146.321 -158.409)" fill="#fff"/>
      <path id="Trazado_4937" data-name="Trazado 4937" d="M249.821,256.88l3.553,8.3,8.99.815-6.794,5.944,2,8.8-7.752-4.625-7.753,4.625,2-8.8-6.794-5.944,8.99-.815ZM245.5,276.011l4.317-2.576,4.318,2.576-1.116-4.9,3.784-3.31-5.007-.454-1.979-4.621-1.979,4.621-5.007.454,3.784,3.31Z" transform="translate(-8.321 -158.409)" fill="#fff"/>
      <path id="Trazado_4981" data-name="Trazado 4981" d="M249.821,256.88l3.553,8.3,8.99.815-6.794,5.944,2,8.8-7.752-4.625-7.753,4.625,2-8.8-6.794-5.944,8.99-.815ZM245.5,276.011l4.317-2.576,4.318,2.576-1.116-4.9,3.784-3.31-5.007-.454-1.979-4.621-1.979,4.621-5.007.454,3.784,3.31Z" transform="translate(129.679 -158.409)" fill="#fff"/>
      <path id="Trazado_4905" data-name="Trazado 4905" d="M249.821,256.88l3.553,8.3,8.99.815-6.794,5.944,2,8.8-7.752-4.625-7.753,4.625,2-8.8-6.794-5.944,8.99-.815ZM245.5,276.011l4.317-2.576,4.318,2.576-1.116-4.9,3.784-3.31-5.007-.454-1.979-4.621-1.979,4.621-5.007.454,3.784,3.31Z" transform="translate(-77.321 -158.409)" fill="#fff"/>
      <path id="Trazado_4938" data-name="Trazado 4938" d="M249.821,256.88l3.553,8.3,8.99.815-6.794,5.944,2,8.8-7.752-4.625-7.753,4.625,2-8.8-6.794-5.944,8.99-.815ZM245.5,276.011l4.317-2.576,4.318,2.576-1.116-4.9,3.784-3.31-5.007-.454-1.979-4.621-1.979,4.621-5.007.454,3.784,3.31Z" transform="translate(60.679 -158.409)" fill="#fff"/>
      <path id="Trazado_4982" data-name="Trazado 4982" d="M249.821,256.88l3.553,8.3,8.99.815-6.794,5.944,2,8.8-7.752-4.625-7.753,4.625,2-8.8-6.794-5.944,8.99-.815ZM245.5,276.011l4.317-2.576,4.318,2.576-1.116-4.9,3.784-3.31-5.007-.454-1.979-4.621-1.979,4.621-5.007.454,3.784,3.31Z" transform="translate(198.679 -158.409)" fill="#fff"/>
      <path id="Trazado_4858" data-name="Trazado 4858" d="M169.311,271.84l1.777,4.149,4.495.408-3.4,2.972,1,4.4-3.876-2.313-3.876,2.313,1-4.4-3.4-2.972,4.495-.408Z" transform="translate(-100.541 -167.635)" fill="#fff"/>
      <path id="Trazado_4956" data-name="Trazado 4956" d="M169.311,271.84l1.777,4.149,4.495.408-3.4,2.972,1,4.4-3.876-2.313-3.876,2.313,1-4.4-3.4-2.972,4.495-.408Z" transform="translate(37.459 -167.635)" fill="#fff"/>
      <path id="Trazado_5000" data-name="Trazado 5000" d="M169.311,271.84l1.777,4.149,4.495.408-3.4,2.972,1,4.4-3.876-2.313-3.876,2.313,1-4.4-3.4-2.972,4.495-.408Z" transform="translate(175.459 -167.635)" fill="#fff"/>
      <path id="Trazado_5015" data-name="Trazado 5015" d="M169.311,271.84l1.777,4.149,4.495.408-3.4,2.972,1,4.4-3.876-2.313-3.876,2.313,1-4.4-3.4-2.972,4.495-.408Z" transform="translate(313.459 -167.635)" fill="#fff"/>
      <path id="Trazado_4914" data-name="Trazado 4914" d="M169.311,271.84l1.777,4.149,4.495.408-3.4,2.972,1,4.4-3.876-2.313-3.876,2.313,1-4.4-3.4-2.972,4.495-.408Z" transform="translate(-31.541 -167.635)" fill="#fff"/>
      <path id="Trazado_4939" data-name="Trazado 4939" d="M169.311,271.84l1.777,4.149,4.495.408-3.4,2.972,1,4.4-3.876-2.313-3.876,2.313,1-4.4-3.4-2.972,4.495-.408Z" transform="translate(106.459 -167.635)" fill="#fff"/>
      <path id="Trazado_4983" data-name="Trazado 4983" d="M169.311,271.84l1.777,4.149,4.495.408-3.4,2.972,1,4.4-3.876-2.313-3.876,2.313,1-4.4-3.4-2.972,4.495-.408Z" transform="translate(244.459 -167.635)" fill="#fff"/>
      <path id="Trazado_4859" data-name="Trazado 4859" d="M79.311,55.84l1.776,4.149,4.5.407-3.4,2.972,1,4.4-3.876-2.313-3.876,2.313,1-4.4-3.4-2.972,4.495-.407Z" transform="translate(-45.041 -34.435)" fill="#fff"/>
      <path id="Trazado_4860" data-name="Trazado 4860" d="M259.311,55.84l1.776,4.149,4.5.407-3.4,2.972,1,4.4-3.876-2.313-3.876,2.313,1-4.4-3.4-2.972,4.495-.407Z" transform="translate(-156.041 -34.435)" fill="#fff"/>
      <path id="Trazado_4954" data-name="Trazado 4954" d="M259.311,55.84l1.776,4.149,4.5.407-3.4,2.972,1,4.4-3.876-2.313-3.876,2.313,1-4.4-3.4-2.972,4.495-.407Z" transform="translate(-18.041 -34.435)" fill="#fff"/>
      <path id="Trazado_4998" data-name="Trazado 4998" d="M259.311,55.84l1.776,4.149,4.5.407-3.4,2.972,1,4.4-3.876-2.313-3.876,2.313,1-4.4-3.4-2.972,4.495-.407Z" transform="translate(119.959 -34.435)" fill="#fff"/>
      <path id="Trazado_4913" data-name="Trazado 4913" d="M259.311,55.84l1.776,4.149,4.5.407-3.4,2.972,1,4.4-3.876-2.313-3.876,2.313,1-4.4-3.4-2.972,4.495-.407Z" transform="translate(-87.041 -34.435)" fill="#fff"/>
      <path id="Trazado_4955" data-name="Trazado 4955" d="M259.311,55.84l1.776,4.149,4.5.407-3.4,2.972,1,4.4-3.876-2.313-3.876,2.313,1-4.4-3.4-2.972,4.495-.407Z" transform="translate(50.959 -34.435)" fill="#fff"/>
      <path id="Trazado_4999" data-name="Trazado 4999" d="M259.311,55.84l1.776,4.149,4.5.407-3.4,2.972,1,4.4-3.876-2.313-3.876,2.313,1-4.4-3.4-2.972,4.495-.407Z" transform="translate(188.959 -34.435)" fill="#fff"/>
      <path id="Trazado_4861" data-name="Trazado 4861" d="M0,46.723l1.979,4.621,5.007.455L3.2,55.109l1.116,4.9L0,57.435v2.678l7.753,4.625-2-8.8,6.794-5.944-8.99-.815L0,40.879Z" transform="translate(0 -25.209)" fill="#fff"/>
      <path id="Trazado_4862" data-name="Trazado 4862" d="M159.821,40.88l3.553,8.3,8.99.815-6.794,5.944,2,8.8-7.752-4.625-7.753,4.625,2-8.8-6.794-5.944,8.99-.815ZM155.5,60.011l4.317-2.576,4.318,2.576-1.116-4.9,3.784-3.31-5.007-.454-1.979-4.622-1.979,4.622-5.007.454,3.784,3.31Z" transform="translate(-90.821 -25.209)" fill="#fff"/>
      <path id="Trazado_4952" data-name="Trazado 4952" d="M159.821,40.88l3.553,8.3,8.99.815-6.794,5.944,2,8.8-7.752-4.625-7.753,4.625,2-8.8-6.794-5.944,8.99-.815ZM155.5,60.011l4.317-2.576,4.318,2.576-1.116-4.9,3.784-3.31-5.007-.454-1.979-4.622-1.979,4.622-5.007.454,3.784,3.31Z" transform="translate(47.179 -25.209)" fill="#fff"/>
      <path id="Trazado_4996" data-name="Trazado 4996" d="M159.821,40.88l3.553,8.3,8.99.815-6.794,5.944,2,8.8-7.752-4.625-7.753,4.625,2-8.8-6.794-5.944,8.99-.815ZM155.5,60.011l4.317-2.576,4.318,2.576-1.116-4.9,3.784-3.31-5.007-.454-1.979-4.622-1.979,4.622-5.007.454,3.784,3.31Z" transform="translate(185.179 -25.209)" fill="#fff"/>
      <path id="Trazado_5018" data-name="Trazado 5018" d="M159.821,40.88l3.553,8.3,8.99.815-6.794,5.944,2,8.8-7.752-4.625-7.753,4.625,2-8.8-6.794-5.944,8.99-.815ZM155.5,60.011l4.317-2.576,4.318,2.576-1.116-4.9,3.784-3.31-5.007-.454-1.979-4.622-1.979,4.622-5.007.454,3.784,3.31Z" transform="translate(323.179 -25.209)" fill="#fff"/>
      <path id="Trazado_4912" data-name="Trazado 4912" d="M159.821,40.88l3.553,8.3,8.99.815-6.794,5.944,2,8.8-7.752-4.625-7.753,4.625,2-8.8-6.794-5.944,8.99-.815ZM155.5,60.011l4.317-2.576,4.318,2.576-1.116-4.9,3.784-3.31-5.007-.454-1.979-4.622-1.979,4.622-5.007.454,3.784,3.31Z" transform="translate(-21.821 -25.209)" fill="#fff"/>
      <path id="Trazado_4953" data-name="Trazado 4953" d="M159.821,40.88l3.553,8.3,8.99.815-6.794,5.944,2,8.8-7.752-4.625-7.753,4.625,2-8.8-6.794-5.944,8.99-.815ZM155.5,60.011l4.317-2.576,4.318,2.576-1.116-4.9,3.784-3.31-5.007-.454-1.979-4.622-1.979,4.622-5.007.454,3.784,3.31Z" transform="translate(116.179 -25.209)" fill="#fff"/>
      <path id="Trazado_4997" data-name="Trazado 4997" d="M159.821,40.88l3.553,8.3,8.99.815-6.794,5.944,2,8.8-7.752-4.625-7.753,4.625,2-8.8-6.794-5.944,8.99-.815ZM155.5,60.011l4.317-2.576,4.318,2.576-1.116-4.9,3.784-3.31-5.007-.454-1.979-4.622-1.979,4.622-5.007.454,3.784,3.31Z" transform="translate(254.179 -25.209)" fill="#fff"/>
      <path id="Trazado_4864" data-name="Trazado 4864" d="M0,138.458l3.646,2.175-1-4.4,3.4-2.972-4.495-.407L0,129.241Z" transform="translate(0 -79.699)" fill="#fff"/>
      <path id="Trazado_4865" data-name="Trazado 4865" d="M69.821,112.88l3.553,8.3,8.99.815-6.795,5.944,2,8.8-7.753-4.625-7.752,4.625,2-8.8-6.795-5.944,8.99-.815ZM65.5,132.011l4.317-2.576,4.318,2.576-1.116-4.9,3.784-3.31-5.007-.454-1.979-4.622-1.979,4.622-5.007.454,3.784,3.31Z" transform="translate(-35.321 -69.609)" fill="#fff"/>
      <path id="Trazado_4866" data-name="Trazado 4866" d="M249.821,112.88l3.553,8.3,8.99.815-6.794,5.944,2,8.8-7.752-4.625-7.753,4.625,2-8.8-6.794-5.944,8.99-.815ZM245.5,132.011l4.317-2.576,4.318,2.576-1.116-4.9,3.784-3.31-5.007-.454-1.979-4.622-1.979,4.622-5.007.454,3.784,3.31Z" transform="translate(-146.321 -69.609)" fill="#fff"/>
      <path id="Trazado_4945" data-name="Trazado 4945" d="M249.821,112.88l3.553,8.3,8.99.815-6.794,5.944,2,8.8-7.752-4.625-7.753,4.625,2-8.8-6.794-5.944,8.99-.815ZM245.5,132.011l4.317-2.576,4.318,2.576-1.116-4.9,3.784-3.31-5.007-.454-1.979-4.622-1.979,4.622-5.007.454,3.784,3.31Z" transform="translate(-8.321 -69.609)" fill="#fff"/>
      <path id="Trazado_4989" data-name="Trazado 4989" d="M249.821,112.88l3.553,8.3,8.99.815-6.794,5.944,2,8.8-7.752-4.625-7.753,4.625,2-8.8-6.794-5.944,8.99-.815ZM245.5,132.011l4.317-2.576,4.318,2.576-1.116-4.9,3.784-3.31-5.007-.454-1.979-4.622-1.979,4.622-5.007.454,3.784,3.31Z" transform="translate(129.679 -69.609)" fill="#fff"/>
      <path id="Trazado_4907" data-name="Trazado 4907" d="M249.821,112.88l3.553,8.3,8.99.815-6.794,5.944,2,8.8-7.752-4.625-7.753,4.625,2-8.8-6.794-5.944,8.99-.815ZM245.5,132.011l4.317-2.576,4.318,2.576-1.116-4.9,3.784-3.31-5.007-.454-1.979-4.622-1.979,4.622-5.007.454,3.784,3.31Z" transform="translate(-77.321 -69.609)" fill="#fff"/>
      <path id="Trazado_4946" data-name="Trazado 4946" d="M249.821,112.88l3.553,8.3,8.99.815-6.794,5.944,2,8.8-7.752-4.625-7.753,4.625,2-8.8-6.794-5.944,8.99-.815ZM245.5,132.011l4.317-2.576,4.318,2.576-1.116-4.9,3.784-3.31-5.007-.454-1.979-4.622-1.979,4.622-5.007.454,3.784,3.31Z" transform="translate(60.679 -69.609)" fill="#fff"/>
      <path id="Trazado_4990" data-name="Trazado 4990" d="M249.821,112.88l3.553,8.3,8.99.815-6.794,5.944,2,8.8-7.752-4.625-7.753,4.625,2-8.8-6.794-5.944,8.99-.815ZM245.5,132.011l4.317-2.576,4.318,2.576-1.116-4.9,3.784-3.31-5.007-.454-1.979-4.622-1.979,4.622-5.007.454,3.784,3.31Z" transform="translate(198.679 -69.609)" fill="#fff"/>
      <path id="Trazado_4868" data-name="Trazado 4868" d="M169.311,127.84l1.777,4.149,4.495.407-3.4,2.972,1,4.4-3.876-2.313-3.876,2.313,1-4.4-3.4-2.972,4.495-.407Z" transform="translate(-100.541 -78.835)" fill="#fff"/>
      <path id="Trazado_4957" data-name="Trazado 4957" d="M169.311,127.84l1.777,4.149,4.495.407-3.4,2.972,1,4.4-3.876-2.313-3.876,2.313,1-4.4-3.4-2.972,4.495-.407Z" transform="translate(37.459 -78.835)" fill="#fff"/>
      <path id="Trazado_5001" data-name="Trazado 5001" d="M169.311,127.84l1.777,4.149,4.495.407-3.4,2.972,1,4.4-3.876-2.313-3.876,2.313,1-4.4-3.4-2.972,4.495-.407Z" transform="translate(175.459 -78.835)" fill="#fff"/>
      <path id="Trazado_5017" data-name="Trazado 5017" d="M169.311,127.84l1.777,4.149,4.495.407-3.4,2.972,1,4.4-3.876-2.313-3.876,2.313,1-4.4-3.4-2.972,4.495-.407Z" transform="translate(313.459 -78.835)" fill="#fff"/>
      <path id="Trazado_4915" data-name="Trazado 4915" d="M169.311,127.84l1.777,4.149,4.495.407-3.4,2.972,1,4.4-3.876-2.313-3.876,2.313,1-4.4-3.4-2.972,4.495-.407Z" transform="translate(-31.541 -78.835)" fill="#fff"/>
      <path id="Trazado_4947" data-name="Trazado 4947" d="M169.311,127.84l1.777,4.149,4.495.407-3.4,2.972,1,4.4-3.876-2.313-3.876,2.313,1-4.4-3.4-2.972,4.495-.407Z" transform="translate(106.459 -78.835)" fill="#fff"/>
      <path id="Trazado_4991" data-name="Trazado 4991" d="M169.311,127.84l1.777,4.149,4.495.407-3.4,2.972,1,4.4-3.876-2.313-3.876,2.313,1-4.4-3.4-2.972,4.495-.407Z" transform="translate(244.459 -78.835)" fill="#fff"/>
      <path id="Trazado_4869" data-name="Trazado 4869" d="M0,0V3.559L3.646,5.735l-1-4.4L4.169,0Z" fill="#fff"/>
      <path id="Trazado_4870" data-name="Trazado 4870" d="M80.831,0,78.2,2.3l1.116,4.9L75,4.626,70.683,7.2,71.8,2.3,69.169,0H65.676l3.575,3.128-2,8.8L75,7.3l7.753,4.625-2-8.8L84.325,0Z" transform="translate(-40.5)" fill="#fff"/>
      <path id="Trazado_4871" data-name="Trazado 4871" d="M260.831,0,258.2,2.3l1.116,4.9L255,4.626,250.683,7.2,251.8,2.3,249.169,0h-3.493l3.575,3.128-2,8.8L255,7.3l7.753,4.625-2-8.8L264.324,0Z" transform="translate(-151.5)" fill="#fff"/>
      <path id="Trazado_4961" data-name="Trazado 4961" d="M260.831,0,258.2,2.3l1.116,4.9L255,4.626,250.683,7.2,251.8,2.3,249.169,0h-3.493l3.575,3.128-2,8.8L255,7.3l7.753,4.625-2-8.8L264.324,0Z" transform="translate(-13.5)" fill="#fff"/>
      <path id="Trazado_5005" data-name="Trazado 5005" d="M260.831,0,258.2,2.3l1.116,4.9L255,4.626,250.683,7.2,251.8,2.3,249.169,0h-3.493l3.575,3.128-2,8.8L255,7.3l7.753,4.625-2-8.8L264.324,0Z" transform="translate(124.5)" fill="#fff"/>
      <path id="Trazado_4919" data-name="Trazado 4919" d="M260.831,0,258.2,2.3l1.116,4.9L255,4.626,250.683,7.2,251.8,2.3,249.169,0h-3.493l3.575,3.128-2,8.8L255,7.3l7.753,4.625-2-8.8L264.324,0Z" transform="translate(-82.5)" fill="#fff"/>
      <path id="Trazado_4962" data-name="Trazado 4962" d="M260.831,0,258.2,2.3l1.116,4.9L255,4.626,250.683,7.2,251.8,2.3,249.169,0h-3.493l3.575,3.128-2,8.8L255,7.3l7.753,4.625-2-8.8L264.324,0Z" transform="translate(55.5)" fill="#fff"/>
      <path id="Trazado_5006" data-name="Trazado 5006" d="M260.831,0,258.2,2.3l1.116,4.9L255,4.626,250.683,7.2,251.8,2.3,249.169,0h-3.493l3.575,3.128-2,8.8L255,7.3l7.753,4.625-2-8.8L264.324,0Z" transform="translate(193.5)" fill="#fff"/>
      <path id="Trazado_4873" data-name="Trazado 4873" d="M167.924,0l1.525,1.334-1,4.4,3.876-2.313L176.2,5.735l-1-4.4L176.722,0Z" transform="translate(-103.553)" fill="#fff"/>
      <path id="Trazado_4963" data-name="Trazado 4963" d="M167.924,0l1.525,1.334-1,4.4,3.876-2.313L176.2,5.735l-1-4.4L176.722,0Z" transform="translate(34.447)" fill="#fff"/>
      <path id="Trazado_5007" data-name="Trazado 5007" d="M167.924,0l1.525,1.334-1,4.4,3.876-2.313L176.2,5.735l-1-4.4L176.722,0Z" transform="translate(172.447)" fill="#fff"/>
      <path id="Trazado_5019" data-name="Trazado 5019" d="M167.924,0l1.525,1.334-1,4.4,3.876-2.313L176.2,5.735l-1-4.4L176.722,0Z" transform="translate(310.447)" fill="#fff"/>
      <path id="Trazado_4920" data-name="Trazado 4920" d="M167.924,0l1.525,1.334-1,4.4,3.876-2.313L176.2,5.735l-1-4.4L176.722,0Z" transform="translate(-34.553)" fill="#fff"/>
      <path id="Trazado_4964" data-name="Trazado 4964" d="M167.924,0l1.525,1.334-1,4.4,3.876-2.313L176.2,5.735l-1-4.4L176.722,0Z" transform="translate(103.447)" fill="#fff"/>
      <path id="Trazado_5008" data-name="Trazado 5008" d="M167.924,0l1.525,1.334-1,4.4,3.876-2.313L176.2,5.735l-1-4.4L176.722,0Z" transform="translate(241.447)" fill="#fff"/>
      <path id="Trazado_4874" data-name="Trazado 4874" d="M79.311,631.84l1.776,4.149,4.5.408-3.4,2.972,1,4.4-3.876-2.313-3.876,2.313,1-4.4-3.4-2.972,4.495-.408Z" transform="translate(-45.041 -389.635)" fill="#fff"/>
      <path id="Trazado_4875" data-name="Trazado 4875" d="M259.311,631.84l1.776,4.149,4.5.408-3.4,2.972,1,4.4-3.876-2.313-3.876,2.313,1-4.4-3.4-2.972,4.495-.408Z" transform="translate(-156.041 -389.635)" fill="#fff"/>
      <path id="Trazado_4940" data-name="Trazado 4940" d="M259.311,631.84l1.776,4.149,4.5.408-3.4,2.972,1,4.4-3.876-2.313-3.876,2.313,1-4.4-3.4-2.972,4.495-.408Z" transform="translate(-18.041 -389.635)" fill="#fff"/>
      <path id="Trazado_4984" data-name="Trazado 4984" d="M259.311,631.84l1.776,4.149,4.5.408-3.4,2.972,1,4.4-3.876-2.313-3.876,2.313,1-4.4-3.4-2.972,4.495-.408Z" transform="translate(119.959 -389.635)" fill="#fff"/>
      <path id="Trazado_4900" data-name="Trazado 4900" d="M259.311,631.84l1.776,4.149,4.5.408-3.4,2.972,1,4.4-3.876-2.313-3.876,2.313,1-4.4-3.4-2.972,4.495-.408Z" transform="translate(-87.041 -389.635)" fill="#fff"/>
      <path id="Trazado_4922" data-name="Trazado 4922" d="M259.311,631.84l1.776,4.149,4.5.408-3.4,2.972,1,4.4-3.876-2.313-3.876,2.313,1-4.4-3.4-2.972,4.495-.408Z" transform="translate(50.959 -389.635)" fill="#fff"/>
      <path id="Trazado_4966" data-name="Trazado 4966" d="M259.311,631.84l1.776,4.149,4.5.408-3.4,2.972,1,4.4-3.876-2.313-3.876,2.313,1-4.4-3.4-2.972,4.495-.408Z" transform="translate(188.959 -389.635)" fill="#fff"/>
      <path id="Trazado_4876" data-name="Trazado 4876" d="M0,622.723l1.979,4.621,5.007.455L3.2,631.109l1.116,4.9L0,633.435v2.678l7.753,4.625-2-8.8,6.794-5.944-8.99-.815L0,616.879Z" transform="translate(0 -380.409)" fill="#fff"/>
      <path id="Trazado_4877" data-name="Trazado 4877" d="M159.821,616.88l3.553,8.3,8.99.815-6.794,5.944,2,8.8-7.752-4.625-7.753,4.625,2-8.8-6.794-5.944,8.99-.815ZM155.5,636.011l4.317-2.575,4.318,2.575-1.116-4.9,3.784-3.31-5.007-.454-1.979-4.622-1.979,4.622-5.007.454,3.784,3.31Z" transform="translate(-90.821 -380.409)" fill="#fff"/>
      <path id="Trazado_4950" data-name="Trazado 4950" d="M159.821,616.88l3.553,8.3,8.99.815-6.794,5.944,2,8.8-7.752-4.625-7.753,4.625,2-8.8-6.794-5.944,8.99-.815ZM155.5,636.011l4.317-2.575,4.318,2.575-1.116-4.9,3.784-3.31-5.007-.454-1.979-4.622-1.979,4.622-5.007.454,3.784,3.31Z" transform="translate(47.179 -380.409)" fill="#fff"/>
      <path id="Trazado_4994" data-name="Trazado 4994" d="M159.821,616.88l3.553,8.3,8.99.815-6.794,5.944,2,8.8-7.752-4.625-7.753,4.625,2-8.8-6.794-5.944,8.99-.815ZM155.5,636.011l4.317-2.575,4.318,2.575-1.116-4.9,3.784-3.31-5.007-.454-1.979-4.622-1.979,4.622-5.007.454,3.784,3.31Z" transform="translate(185.179 -380.409)" fill="#fff"/>
      <path id="Trazado_5010" data-name="Trazado 5010" d="M159.821,616.88l3.553,8.3,8.99.815-6.794,5.944,2,8.8-7.752-4.625-7.753,4.625,2-8.8-6.794-5.944,8.99-.815ZM155.5,636.011l4.317-2.575,4.318,2.575-1.116-4.9,3.784-3.31-5.007-.454-1.979-4.622-1.979,4.622-5.007.454,3.784,3.31Z" transform="translate(323.179 -380.409)" fill="#fff"/>
      <path id="Trazado_4910" data-name="Trazado 4910" d="M159.821,616.88l3.553,8.3,8.99.815-6.794,5.944,2,8.8-7.752-4.625-7.753,4.625,2-8.8-6.794-5.944,8.99-.815ZM155.5,636.011l4.317-2.575,4.318,2.575-1.116-4.9,3.784-3.31-5.007-.454-1.979-4.622-1.979,4.622-5.007.454,3.784,3.31Z" transform="translate(-21.821 -380.409)" fill="#fff"/>
      <path id="Trazado_4923" data-name="Trazado 4923" d="M159.821,616.88l3.553,8.3,8.99.815-6.794,5.944,2,8.8-7.752-4.625-7.753,4.625,2-8.8-6.794-5.944,8.99-.815ZM155.5,636.011l4.317-2.575,4.318,2.575-1.116-4.9,3.784-3.31-5.007-.454-1.979-4.622-1.979,4.622-5.007.454,3.784,3.31Z" transform="translate(116.179 -380.409)" fill="#fff"/>
      <path id="Trazado_4967" data-name="Trazado 4967" d="M159.821,616.88l3.553,8.3,8.99.815-6.794,5.944,2,8.8-7.752-4.625-7.753,4.625,2-8.8-6.794-5.944,8.99-.815ZM155.5,636.011l4.317-2.575,4.318,2.575-1.116-4.9,3.784-3.31-5.007-.454-1.979-4.622-1.979,4.622-5.007.454,3.784,3.31Z" transform="translate(254.179 -380.409)" fill="#fff"/>
      <path id="Trazado_4879" data-name="Trazado 4879" d="M0,710.9H4.169l1.873-1.638-4.495-.407L0,705.241Z" transform="translate(0 -434.899)" fill="#fff"/>
      <path id="Trazado_4880" data-name="Trazado 4880" d="M66.268,697.177l-8.99.815,3.219,2.816H63.99l-1.155-1.01,5.008-.454,1.978-4.621,1.98,4.621,5.007.454-1.155,1.01h3.493l3.219-2.816-8.99-.815-3.553-8.3Z" transform="translate(-35.321 -424.809)" fill="#fff"/>
      <path id="Trazado_4881" data-name="Trazado 4881" d="M246.268,697.177l-8.99.815,3.219,2.816h3.493l-1.155-1.01,5.007-.454,1.979-4.621,1.979,4.621,5.007.454-1.155,1.01h3.493l3.219-2.816-8.99-.815-3.553-8.3Z" transform="translate(-146.321 -424.809)" fill="#fff"/>
      <path id="Trazado_4928" data-name="Trazado 4928" d="M246.268,697.177l-8.99.815,3.219,2.816h3.493l-1.155-1.01,5.007-.454,1.979-4.621,1.979,4.621,5.007.454-1.155,1.01h3.493l3.219-2.816-8.99-.815-3.553-8.3Z" transform="translate(-8.321 -424.809)" fill="#fff"/>
      <path id="Trazado_4972" data-name="Trazado 4972" d="M246.268,697.177l-8.99.815,3.219,2.816h3.493l-1.155-1.01,5.007-.454,1.979-4.621,1.979,4.621,5.007.454-1.155,1.01h3.493l3.219-2.816-8.99-.815-3.553-8.3Z" transform="translate(129.679 -424.809)" fill="#fff"/>
      <path id="Trazado_4899" data-name="Trazado 4899" d="M246.268,697.177l-8.99.815,3.219,2.816h3.493l-1.155-1.01,5.007-.454,1.979-4.621,1.979,4.621,5.007.454-1.155,1.01h3.493l3.219-2.816-8.99-.815-3.553-8.3Z" transform="translate(-77.321 -424.809)" fill="#fff"/>
      <path id="Trazado_4921" data-name="Trazado 4921" d="M246.268,697.177l-8.99.815,3.219,2.816h3.493l-1.155-1.01,5.007-.454,1.979-4.621,1.979,4.621,5.007.454-1.155,1.01h3.493l3.219-2.816-8.99-.815-3.553-8.3Z" transform="translate(60.679 -424.809)" fill="#fff"/>
      <path id="Trazado_4965" data-name="Trazado 4965" d="M246.268,697.177l-8.99.815,3.219,2.816h3.493l-1.155-1.01,5.007-.454,1.979-4.621,1.979,4.621,5.007.454-1.155,1.01h3.493l3.219-2.816-8.99-.815-3.553-8.3Z" transform="translate(198.679 -424.809)" fill="#fff"/>
      <path id="Trazado_4883" data-name="Trazado 4883" d="M167.534,707.989l-4.5.407,1.873,1.638h8.8l1.872-1.638-4.495-.407-1.777-4.149Z" transform="translate(-100.541 -434.035)" fill="#fff"/>
      <path id="Trazado_4958" data-name="Trazado 4958" d="M167.534,707.989l-4.5.407,1.873,1.638h8.8l1.872-1.638-4.495-.407-1.777-4.149Z" transform="translate(37.459 -434.035)" fill="#fff"/>
      <path id="Trazado_5002" data-name="Trazado 5002" d="M167.534,707.989l-4.5.407,1.873,1.638h8.8l1.872-1.638-4.495-.407-1.777-4.149Z" transform="translate(175.46 -434.035)" fill="#fff"/>
      <path id="Trazado_5009" data-name="Trazado 5009" d="M167.534,707.989l-4.5.407,1.873,1.638h8.8l1.872-1.638-4.495-.407-1.777-4.149Z" transform="translate(313.46 -434.035)" fill="#fff"/>
      <path id="Trazado_4916" data-name="Trazado 4916" d="M167.534,707.989l-4.5.407,1.873,1.638h8.8l1.872-1.638-4.495-.407-1.777-4.149Z" transform="translate(-31.541 -434.035)" fill="#fff"/>
      <path id="Trazado_4924" data-name="Trazado 4924" d="M167.534,707.989l-4.5.407,1.873,1.638h8.8l1.872-1.638-4.495-.407-1.777-4.149Z" transform="translate(106.459 -434.035)" fill="#fff"/>
      <path id="Trazado_4968" data-name="Trazado 4968" d="M167.534,707.989l-4.5.407,1.873,1.638h8.8l1.872-1.638-4.495-.407-1.777-4.149Z" transform="translate(244.46 -434.035)" fill="#fff"/>
      <path id="Trazado_4884" data-name="Trazado 4884" d="M79.311,487.84l1.776,4.149,4.5.408-3.4,2.972,1,4.4-3.876-2.313-3.876,2.313,1-4.4-3.4-2.972,4.495-.408Z" transform="translate(-45.041 -300.835)" fill="#fff"/>
      <path id="Trazado_4885" data-name="Trazado 4885" d="M259.311,487.84l1.776,4.149,4.5.408-3.4,2.972,1,4.4-3.876-2.313-3.876,2.313,1-4.4-3.4-2.972,4.495-.408Z" transform="translate(-156.041 -300.835)" fill="#fff"/>
      <path id="Trazado_4941" data-name="Trazado 4941" d="M259.311,487.84l1.776,4.149,4.5.408-3.4,2.972,1,4.4-3.876-2.313-3.876,2.313,1-4.4-3.4-2.972,4.495-.408Z" transform="translate(-18.041 -300.835)" fill="#fff"/>
      <path id="Trazado_4985" data-name="Trazado 4985" d="M259.311,487.84l1.776,4.149,4.5.408-3.4,2.972,1,4.4-3.876-2.313-3.876,2.313,1-4.4-3.4-2.972,4.495-.408Z" transform="translate(119.959 -300.835)" fill="#fff"/>
      <path id="Trazado_4901" data-name="Trazado 4901" d="M259.311,487.84l1.776,4.149,4.5.408-3.4,2.972,1,4.4-3.876-2.313-3.876,2.313,1-4.4-3.4-2.972,4.495-.408Z" transform="translate(-87.041 -300.835)" fill="#fff"/>
      <path id="Trazado_4929" data-name="Trazado 4929" d="M259.311,487.84l1.776,4.149,4.5.408-3.4,2.972,1,4.4-3.876-2.313-3.876,2.313,1-4.4-3.4-2.972,4.495-.408Z" transform="translate(50.959 -300.835)" fill="#fff"/>
      <path id="Trazado_4973" data-name="Trazado 4973" d="M259.311,487.84l1.776,4.149,4.5.408-3.4,2.972,1,4.4-3.876-2.313-3.876,2.313,1-4.4-3.4-2.972,4.495-.408Z" transform="translate(188.959 -300.835)" fill="#fff"/>
      <path id="Trazado_4886" data-name="Trazado 4886" d="M0,478.723l1.979,4.621,5.007.455L3.2,487.109l1.116,4.9L0,489.435v2.678l7.753,4.625-2-8.8,6.794-5.944-8.99-.815L0,472.879Z" transform="translate(0 -291.609)" fill="#fff"/>
      <path id="Trazado_4887" data-name="Trazado 4887" d="M159.821,472.88l3.553,8.3,8.99.815-6.794,5.944,2,8.8-7.752-4.625-7.753,4.625,2-8.8-6.794-5.944,8.99-.815ZM155.5,492.011l4.317-2.576,4.318,2.576-1.116-4.9,3.784-3.31-5.007-.454-1.979-4.621-1.979,4.621-5.007.454,3.784,3.31Z" transform="translate(-90.821 -291.609)" fill="#fff"/>
      <path id="Trazado_4951" data-name="Trazado 4951" d="M159.821,472.88l3.553,8.3,8.99.815-6.794,5.944,2,8.8-7.752-4.625-7.753,4.625,2-8.8-6.794-5.944,8.99-.815ZM155.5,492.011l4.317-2.576,4.318,2.576-1.116-4.9,3.784-3.31-5.007-.454-1.979-4.621-1.979,4.621-5.007.454,3.784,3.31Z" transform="translate(47.179 -291.609)" fill="#fff"/>
      <path id="Trazado_4995" data-name="Trazado 4995" d="M159.821,472.88l3.553,8.3,8.99.815-6.794,5.944,2,8.8-7.752-4.625-7.753,4.625,2-8.8-6.794-5.944,8.99-.815ZM155.5,492.011l4.317-2.576,4.318,2.576-1.116-4.9,3.784-3.31-5.007-.454-1.979-4.621-1.979,4.621-5.007.454,3.784,3.31Z" transform="translate(185.179 -291.609)" fill="#fff"/>
      <path id="Trazado_5013" data-name="Trazado 5013" d="M159.821,472.88l3.553,8.3,8.99.815-6.794,5.944,2,8.8-7.752-4.625-7.753,4.625,2-8.8-6.794-5.944,8.99-.815ZM155.5,492.011l4.317-2.576,4.318,2.576-1.116-4.9,3.784-3.31-5.007-.454-1.979-4.621-1.979,4.621-5.007.454,3.784,3.31Z" transform="translate(323.179 -291.609)" fill="#fff"/>
      <path id="Trazado_4911" data-name="Trazado 4911" d="M159.821,472.88l3.553,8.3,8.99.815-6.794,5.944,2,8.8-7.752-4.625-7.753,4.625,2-8.8-6.794-5.944,8.99-.815ZM155.5,492.011l4.317-2.576,4.318,2.576-1.116-4.9,3.784-3.31-5.007-.454-1.979-4.621-1.979,4.621-5.007.454,3.784,3.31Z" transform="translate(-21.821 -291.609)" fill="#fff"/>
      <path id="Trazado_4930" data-name="Trazado 4930" d="M159.821,472.88l3.553,8.3,8.99.815-6.794,5.944,2,8.8-7.752-4.625-7.753,4.625,2-8.8-6.794-5.944,8.99-.815ZM155.5,492.011l4.317-2.576,4.318,2.576-1.116-4.9,3.784-3.31-5.007-.454-1.979-4.621-1.979,4.621-5.007.454,3.784,3.31Z" transform="translate(116.179 -291.609)" fill="#fff"/>
      <path id="Trazado_4974" data-name="Trazado 4974" d="M159.821,472.88l3.553,8.3,8.99.815-6.794,5.944,2,8.8-7.752-4.625-7.753,4.625,2-8.8-6.794-5.944,8.99-.815ZM155.5,492.011l4.317-2.576,4.318,2.576-1.116-4.9,3.784-3.31-5.007-.454-1.979-4.621-1.979,4.621-5.007.454,3.784,3.31Z" transform="translate(254.179 -291.609)" fill="#fff"/>
      <path id="Trazado_4889" data-name="Trazado 4889" d="M0,570.458l3.646,2.175-1-4.4,3.4-2.972-4.495-.407L0,561.241Z" transform="translate(0 -346.099)" fill="#fff"/>
      <path id="Trazado_4890" data-name="Trazado 4890" d="M69.821,544.88l3.553,8.3,8.99.815-6.795,5.944,2,8.8-7.753-4.625-7.752,4.625,2-8.8-6.795-5.944,8.99-.815ZM65.5,564.011l4.317-2.575,4.318,2.575-1.116-4.9,3.784-3.31-5.007-.454-1.979-4.621-1.979,4.621-5.007.454,3.784,3.31Z" transform="translate(-35.321 -336.009)" fill="#fff"/>
      <path id="Trazado_4891" data-name="Trazado 4891" d="M249.821,544.88l3.553,8.3,8.99.815-6.794,5.944,2,8.8-7.752-4.625-7.753,4.625,2-8.8-6.794-5.944,8.99-.815ZM245.5,564.011l4.317-2.575,4.318,2.575-1.116-4.9,3.784-3.31-5.007-.454-1.979-4.621-1.979,4.621-5.007.454,3.784,3.31Z" transform="translate(-146.321 -336.009)" fill="#fff"/>
      <path id="Trazado_4931" data-name="Trazado 4931" d="M249.821,544.88l3.553,8.3,8.99.815-6.794,5.944,2,8.8-7.752-4.625-7.753,4.625,2-8.8-6.794-5.944,8.99-.815ZM245.5,564.011l4.317-2.575,4.318,2.575-1.116-4.9,3.784-3.31-5.007-.454-1.979-4.621-1.979,4.621-5.007.454,3.784,3.31Z" transform="translate(-8.321 -336.009)" fill="#fff"/>
      <path id="Trazado_4975" data-name="Trazado 4975" d="M249.821,544.88l3.553,8.3,8.99.815-6.794,5.944,2,8.8-7.752-4.625-7.753,4.625,2-8.8-6.794-5.944,8.99-.815ZM245.5,564.011l4.317-2.575,4.318,2.575-1.116-4.9,3.784-3.31-5.007-.454-1.979-4.621-1.979,4.621-5.007.454,3.784,3.31Z" transform="translate(129.679 -336.009)" fill="#fff"/>
      <path id="Trazado_4902" data-name="Trazado 4902" d="M249.821,544.88l3.553,8.3,8.99.815-6.794,5.944,2,8.8-7.752-4.625-7.753,4.625,2-8.8-6.794-5.944,8.99-.815ZM245.5,564.011l4.317-2.575,4.318,2.575-1.116-4.9,3.784-3.31-5.007-.454-1.979-4.621-1.979,4.621-5.007.454,3.784,3.31Z" transform="translate(-77.321 -336.009)" fill="#fff"/>
      <path id="Trazado_4925" data-name="Trazado 4925" d="M249.821,544.88l3.553,8.3,8.99.815-6.794,5.944,2,8.8-7.752-4.625-7.753,4.625,2-8.8-6.794-5.944,8.99-.815ZM245.5,564.011l4.317-2.575,4.318,2.575-1.116-4.9,3.784-3.31-5.007-.454-1.979-4.621-1.979,4.621-5.007.454,3.784,3.31Z" transform="translate(60.679 -336.009)" fill="#fff"/>
      <path id="Trazado_4969" data-name="Trazado 4969" d="M249.821,544.88l3.553,8.3,8.99.815-6.794,5.944,2,8.8-7.752-4.625-7.753,4.625,2-8.8-6.794-5.944,8.99-.815ZM245.5,564.011l4.317-2.575,4.318,2.575-1.116-4.9,3.784-3.31-5.007-.454-1.979-4.621-1.979,4.621-5.007.454,3.784,3.31Z" transform="translate(198.679 -336.009)" fill="#fff"/>
      <path id="Trazado_4893" data-name="Trazado 4893" d="M169.311,559.84l1.777,4.149,4.495.408-3.4,2.972,1,4.4-3.876-2.313-3.876,2.313,1-4.4-3.4-2.972,4.495-.408Z" transform="translate(-100.541 -345.235)" fill="#fff"/>
      <path id="Trazado_4959" data-name="Trazado 4959" d="M169.311,559.84l1.777,4.149,4.495.408-3.4,2.972,1,4.4-3.876-2.313-3.876,2.313,1-4.4-3.4-2.972,4.495-.408Z" transform="translate(37.459 -345.235)" fill="#fff"/>
      <path id="Trazado_5003" data-name="Trazado 5003" d="M169.311,559.84l1.777,4.149,4.495.408-3.4,2.972,1,4.4-3.876-2.313-3.876,2.313,1-4.4-3.4-2.972,4.495-.408Z" transform="translate(175.459 -345.235)" fill="#fff"/>
      <path id="Trazado_5011" data-name="Trazado 5011" d="M169.311,559.84l1.777,4.149,4.495.408-3.4,2.972,1,4.4-3.876-2.313-3.876,2.313,1-4.4-3.4-2.972,4.495-.408Z" transform="translate(313.459 -345.235)" fill="#fff"/>
      <path id="Trazado_4917" data-name="Trazado 4917" d="M169.311,559.84l1.777,4.149,4.495.408-3.4,2.972,1,4.4-3.876-2.313-3.876,2.313,1-4.4-3.4-2.972,4.495-.408Z" transform="translate(-31.541 -345.235)" fill="#fff"/>
      <path id="Trazado_4926" data-name="Trazado 4926" d="M169.311,559.84l1.777,4.149,4.495.408-3.4,2.972,1,4.4-3.876-2.313-3.876,2.313,1-4.4-3.4-2.972,4.495-.408Z" transform="translate(106.459 -345.235)" fill="#fff"/>
      <path id="Trazado_4970" data-name="Trazado 4970" d="M169.311,559.84l1.777,4.149,4.495.408-3.4,2.972,1,4.4-3.876-2.313-3.876,2.313,1-4.4-3.4-2.972,4.495-.408Z" transform="translate(244.459 -345.235)" fill="#fff"/>
      <path id="Trazado_4894" data-name="Trazado 4894" d="M0,426.458l3.646,2.175-1-4.4,3.4-2.972-4.495-.407L0,417.241Z" transform="translate(0 -257.299)" fill="#fff"/>
      <path id="Trazado_4895" data-name="Trazado 4895" d="M69.821,400.88l3.553,8.3,8.99.815-6.795,5.944,2,8.8-7.753-4.625-7.752,4.625,2-8.8-6.795-5.944,8.99-.815ZM65.5,420.011l4.317-2.576,4.318,2.576-1.116-4.9,3.784-3.31-5.007-.454-1.979-4.621-1.979,4.621-5.007.454,3.784,3.31Z" transform="translate(-35.321 -247.209)" fill="#fff"/>
      <path id="Trazado_4896" data-name="Trazado 4896" d="M249.821,400.88l3.553,8.3,8.99.815-6.794,5.944,2,8.8-7.752-4.625-7.753,4.625,2-8.8-6.794-5.944,8.99-.815ZM245.5,420.011l4.317-2.576,4.318,2.576-1.116-4.9,3.784-3.31-5.007-.454-1.979-4.621-1.979,4.621-5.007.454,3.784,3.31Z" transform="translate(-146.321 -247.209)" fill="#fff"/>
      <path id="Trazado_4932" data-name="Trazado 4932" d="M249.821,400.88l3.553,8.3,8.99.815-6.794,5.944,2,8.8-7.752-4.625-7.753,4.625,2-8.8-6.794-5.944,8.99-.815ZM245.5,420.011l4.317-2.576,4.318,2.576-1.116-4.9,3.784-3.31-5.007-.454-1.979-4.621-1.979,4.621-5.007.454,3.784,3.31Z" transform="translate(-8.321 -247.209)" fill="#fff"/>
      <path id="Trazado_4976" data-name="Trazado 4976" d="M249.821,400.88l3.553,8.3,8.99.815-6.794,5.944,2,8.8-7.752-4.625-7.753,4.625,2-8.8-6.794-5.944,8.99-.815ZM245.5,420.011l4.317-2.576,4.318,2.576-1.116-4.9,3.784-3.31-5.007-.454-1.979-4.621-1.979,4.621-5.007.454,3.784,3.31Z" transform="translate(129.679 -247.209)" fill="#fff"/>
      <path id="Trazado_4903" data-name="Trazado 4903" d="M249.821,400.88l3.553,8.3,8.99.815-6.794,5.944,2,8.8-7.752-4.625-7.753,4.625,2-8.8-6.794-5.944,8.99-.815ZM245.5,420.011l4.317-2.576,4.318,2.576-1.116-4.9,3.784-3.31-5.007-.454-1.979-4.621-1.979,4.621-5.007.454,3.784,3.31Z" transform="translate(-77.321 -247.209)" fill="#fff"/>
      <path id="Trazado_4933" data-name="Trazado 4933" d="M249.821,400.88l3.553,8.3,8.99.815-6.794,5.944,2,8.8-7.752-4.625-7.753,4.625,2-8.8-6.794-5.944,8.99-.815ZM245.5,420.011l4.317-2.576,4.318,2.576-1.116-4.9,3.784-3.31-5.007-.454-1.979-4.621-1.979,4.621-5.007.454,3.784,3.31Z" transform="translate(60.679 -247.209)" fill="#fff"/>
      <path id="Trazado_4977" data-name="Trazado 4977" d="M249.821,400.88l3.553,8.3,8.99.815-6.794,5.944,2,8.8-7.752-4.625-7.753,4.625,2-8.8-6.794-5.944,8.99-.815ZM245.5,420.011l4.317-2.576,4.318,2.576-1.116-4.9,3.784-3.31-5.007-.454-1.979-4.621-1.979,4.621-5.007.454,3.784,3.31Z" transform="translate(198.679 -247.209)" fill="#fff"/>
      <path id="Trazado_4898" data-name="Trazado 4898" d="M169.311,415.84l1.777,4.149,4.495.407-3.4,2.972,1,4.4-3.876-2.313-3.876,2.313,1-4.4-3.4-2.972,4.495-.407Z" transform="translate(-100.541 -256.435)" fill="#fff"/>
      <path id="Trazado_4960" data-name="Trazado 4960" d="M169.311,415.84l1.777,4.149,4.495.407-3.4,2.972,1,4.4-3.876-2.313-3.876,2.313,1-4.4-3.4-2.972,4.495-.407Z" transform="translate(37.459 -256.435)" fill="#fff"/>
      <path id="Trazado_5004" data-name="Trazado 5004" d="M169.311,415.84l1.777,4.149,4.495.407-3.4,2.972,1,4.4-3.876-2.313-3.876,2.313,1-4.4-3.4-2.972,4.495-.407Z" transform="translate(175.459 -256.435)" fill="#fff"/>
      <path id="Trazado_5014" data-name="Trazado 5014" d="M169.311,415.84l1.777,4.149,4.495.407-3.4,2.972,1,4.4-3.876-2.313-3.876,2.313,1-4.4-3.4-2.972,4.495-.407Z" transform="translate(313.459 -256.435)" fill="#fff"/>
      <path id="Trazado_4918" data-name="Trazado 4918" d="M169.311,415.84l1.777,4.149,4.495.407-3.4,2.972,1,4.4-3.876-2.313-3.876,2.313,1-4.4-3.4-2.972,4.495-.407Z" transform="translate(-31.541 -256.435)" fill="#fff"/>
      <path id="Trazado_4934" data-name="Trazado 4934" d="M169.311,415.84l1.777,4.149,4.495.407-3.4,2.972,1,4.4-3.876-2.313-3.876,2.313,1-4.4-3.4-2.972,4.495-.407Z" transform="translate(106.459 -256.435)" fill="#fff"/>
      <path id="Trazado_4978" data-name="Trazado 4978" d="M169.311,415.84l1.777,4.149,4.495.407-3.4,2.972,1,4.4-3.876-2.313-3.876,2.313,1-4.4-3.4-2.972,4.495-.407Z" transform="translate(244.459 -256.435)" fill="#fff"/>
    </g>
  </g>
</svg>
