<svg xmlns="http://www.w3.org/2000/svg" width="483" height="276" viewBox="0 0 483 276">
  <g id="Grupo_18826" data-name="Grupo 18826" transform="translate(-213 -4438)">
    <rect id="Rectángulo_1612" data-name="Rectángulo 1612" width="483" height="276" transform="translate(213 4438)" fill="#faeafa"/>
    <g id="Grupo_18824" data-name="Grupo 18824" transform="translate(213 4438)">
      <g id="Grupo_18825" data-name="Grupo 18825">
        <path id="Trazado_4612" data-name="Trazado 4612" d="M7.152,23.462a3.422,3.422,0,0,0-3.577-3.155A3.642,3.642,0,0,0,0,22.372V32.806c3.576-3.124,7.152-6.22,7.152-9.344" transform="translate(0 -10.088)" fill="#f5daf5" fill-rule="evenodd"/>
        <path id="Trazado_4815" data-name="Trazado 4815" d="M7.152,23.462a3.422,3.422,0,0,0-3.577-3.155A3.642,3.642,0,0,0,0,22.372V32.806c3.576-3.124,7.152-6.22,7.152-9.344" transform="translate(0 127.03)" fill="#f5daf5" fill-rule="evenodd"/>
        <path id="Trazado_4614" data-name="Trazado 4614" d="M86.514,20.306a3.642,3.642,0,0,0-3.576,2.067,3.64,3.64,0,0,0-3.574-2.067,3.422,3.422,0,0,0-3.577,3.155c0,3.125,3.577,6.22,7.151,9.346,3.576-3.125,7.153-6.221,7.153-9.346a3.422,3.422,0,0,0-3.577-3.155" transform="translate(-37.651 -10.088)" fill="#f5daf5" fill-rule="evenodd"/>
        <path id="Trazado_4816" data-name="Trazado 4816" d="M86.514,20.306a3.642,3.642,0,0,0-3.576,2.067,3.64,3.64,0,0,0-3.574-2.067,3.422,3.422,0,0,0-3.577,3.155c0,3.125,3.577,6.22,7.151,9.346,3.576-3.125,7.153-6.221,7.153-9.346a3.422,3.422,0,0,0-3.577-3.155" transform="translate(-37.651 127.031)" fill="#f5daf5" fill-rule="evenodd"/>
        <path id="Trazado_4734" data-name="Trazado 4734" d="M86.514,20.306a3.642,3.642,0,0,0-3.576,2.067,3.64,3.64,0,0,0-3.574-2.067,3.422,3.422,0,0,0-3.577,3.155c0,3.125,3.577,6.22,7.151,9.346,3.576-3.125,7.153-6.221,7.153-9.346a3.422,3.422,0,0,0-3.577-3.155" transform="translate(234.083 -10.088)" fill="#f5daf5" fill-rule="evenodd"/>
        <path id="Trazado_4817" data-name="Trazado 4817" d="M86.514,20.306a3.642,3.642,0,0,0-3.576,2.067,3.64,3.64,0,0,0-3.574-2.067,3.422,3.422,0,0,0-3.577,3.155c0,3.125,3.577,6.22,7.151,9.346,3.576-3.125,7.153-6.221,7.153-9.346a3.422,3.422,0,0,0-3.577-3.155" transform="translate(234.083 127.031)" fill="#f5daf5" fill-rule="evenodd"/>
        <path id="Trazado_4680" data-name="Trazado 4680" d="M86.514,20.306a3.642,3.642,0,0,0-3.576,2.067,3.64,3.64,0,0,0-3.574-2.067,3.422,3.422,0,0,0-3.577,3.155c0,3.125,3.577,6.22,7.151,9.346,3.576-3.125,7.153-6.221,7.153-9.346a3.422,3.422,0,0,0-3.577-3.155" transform="translate(98.216 -10.088)" fill="#f5daf5" fill-rule="evenodd"/>
        <path id="Trazado_4818" data-name="Trazado 4818" d="M86.514,20.306a3.642,3.642,0,0,0-3.576,2.067,3.64,3.64,0,0,0-3.574-2.067,3.422,3.422,0,0,0-3.577,3.155c0,3.125,3.577,6.22,7.151,9.346,3.576-3.125,7.153-6.221,7.153-9.346a3.422,3.422,0,0,0-3.577-3.155" transform="translate(98.216 127.031)" fill="#f5daf5" fill-rule="evenodd"/>
        <path id="Trazado_4712" data-name="Trazado 4712" d="M86.514,20.306a3.642,3.642,0,0,0-3.576,2.067,3.64,3.64,0,0,0-3.574-2.067,3.422,3.422,0,0,0-3.577,3.155c0,3.125,3.577,6.22,7.151,9.346,3.576-3.125,7.153-6.221,7.153-9.346a3.422,3.422,0,0,0-3.577-3.155" transform="translate(369.95 -10.088)" fill="#f5daf5" fill-rule="evenodd"/>
        <path id="Trazado_4819" data-name="Trazado 4819" d="M86.514,20.306a3.642,3.642,0,0,0-3.576,2.067,3.64,3.64,0,0,0-3.574-2.067,3.422,3.422,0,0,0-3.577,3.155c0,3.125,3.577,6.22,7.151,9.346,3.576-3.125,7.153-6.221,7.153-9.346a3.422,3.422,0,0,0-3.577-3.155" transform="translate(369.95 127.031)" fill="#f5daf5" fill-rule="evenodd"/>
        <path id="Trazado_4615" data-name="Trazado 4615" d="M176.514,20.306a3.642,3.642,0,0,0-3.576,2.067,3.64,3.64,0,0,0-3.574-2.067,3.422,3.422,0,0,0-3.577,3.155c0,3.125,3.577,6.22,7.151,9.346,3.576-3.125,7.153-6.221,7.153-9.346a3.422,3.422,0,0,0-3.577-3.155" transform="translate(-82.362 -10.088)" fill="#f5daf5" fill-rule="evenodd"/>
        <path id="Trazado_4820" data-name="Trazado 4820" d="M176.514,20.306a3.642,3.642,0,0,0-3.576,2.067,3.64,3.64,0,0,0-3.574-2.067,3.422,3.422,0,0,0-3.577,3.155c0,3.125,3.577,6.22,7.151,9.346,3.576-3.125,7.153-6.221,7.153-9.346a3.422,3.422,0,0,0-3.577-3.155" transform="translate(-82.362 127.031)" fill="#f5daf5" fill-rule="evenodd"/>
        <path id="Trazado_4713" data-name="Trazado 4713" d="M176.514,20.306a3.642,3.642,0,0,0-3.576,2.067,3.64,3.64,0,0,0-3.574-2.067,3.422,3.422,0,0,0-3.577,3.155c0,3.125,3.577,6.22,7.151,9.346,3.576-3.125,7.153-6.221,7.153-9.346a3.422,3.422,0,0,0-3.577-3.155" transform="translate(189.372 -10.088)" fill="#f5daf5" fill-rule="evenodd"/>
        <path id="Trazado_4821" data-name="Trazado 4821" d="M176.514,20.306a3.642,3.642,0,0,0-3.576,2.067,3.64,3.64,0,0,0-3.574-2.067,3.422,3.422,0,0,0-3.577,3.155c0,3.125,3.577,6.22,7.151,9.346,3.576-3.125,7.153-6.221,7.153-9.346a3.422,3.422,0,0,0-3.577-3.155" transform="translate(189.372 127.031)" fill="#f5daf5" fill-rule="evenodd"/>
        <path id="Trazado_4675" data-name="Trazado 4675" d="M176.514,20.306a3.642,3.642,0,0,0-3.576,2.067,3.64,3.64,0,0,0-3.574-2.067,3.422,3.422,0,0,0-3.577,3.155c0,3.125,3.577,6.22,7.151,9.346,3.576-3.125,7.153-6.221,7.153-9.346a3.422,3.422,0,0,0-3.577-3.155" transform="translate(53.505 -10.088)" fill="#f5daf5" fill-rule="evenodd"/>
        <path id="Trazado_4822" data-name="Trazado 4822" d="M176.514,20.306a3.642,3.642,0,0,0-3.576,2.067,3.64,3.64,0,0,0-3.574-2.067,3.422,3.422,0,0,0-3.577,3.155c0,3.125,3.577,6.22,7.151,9.346,3.576-3.125,7.153-6.221,7.153-9.346a3.422,3.422,0,0,0-3.577-3.155" transform="translate(53.505 127.031)" fill="#f5daf5" fill-rule="evenodd"/>
        <path id="Trazado_4616" data-name="Trazado 4616" d="M266.514,20.306a3.642,3.642,0,0,0-3.576,2.067,3.64,3.64,0,0,0-3.574-2.067,3.422,3.422,0,0,0-3.577,3.155c0,3.125,3.577,6.22,7.151,9.346,3.576-3.125,7.153-6.221,7.153-9.346a3.422,3.422,0,0,0-3.577-3.155" transform="translate(-127.073 -10.088)" fill="#f5daf5" fill-rule="evenodd"/>
        <path id="Trazado_4823" data-name="Trazado 4823" d="M266.514,20.306a3.642,3.642,0,0,0-3.576,2.067,3.64,3.64,0,0,0-3.574-2.067,3.422,3.422,0,0,0-3.577,3.155c0,3.125,3.577,6.22,7.151,9.346,3.576-3.125,7.153-6.221,7.153-9.346a3.422,3.422,0,0,0-3.577-3.155" transform="translate(-127.073 127.031)" fill="#f5daf5" fill-rule="evenodd"/>
        <path id="Trazado_4715" data-name="Trazado 4715" d="M266.514,20.306a3.642,3.642,0,0,0-3.576,2.067,3.64,3.64,0,0,0-3.574-2.067,3.422,3.422,0,0,0-3.577,3.155c0,3.125,3.577,6.22,7.151,9.346,3.576-3.125,7.153-6.221,7.153-9.346a3.422,3.422,0,0,0-3.577-3.155" transform="translate(144.661 -10.088)" fill="#f5daf5" fill-rule="evenodd"/>
        <path id="Trazado_4824" data-name="Trazado 4824" d="M266.514,20.306a3.642,3.642,0,0,0-3.576,2.067,3.64,3.64,0,0,0-3.574-2.067,3.422,3.422,0,0,0-3.577,3.155c0,3.125,3.577,6.22,7.151,9.346,3.576-3.125,7.153-6.221,7.153-9.346a3.422,3.422,0,0,0-3.577-3.155" transform="translate(144.661 127.031)" fill="#f5daf5" fill-rule="evenodd"/>
        <path id="Trazado_4676" data-name="Trazado 4676" d="M266.514,20.306a3.642,3.642,0,0,0-3.576,2.067,3.64,3.64,0,0,0-3.574-2.067,3.422,3.422,0,0,0-3.577,3.155c0,3.125,3.577,6.22,7.151,9.346,3.576-3.125,7.153-6.221,7.153-9.346a3.422,3.422,0,0,0-3.577-3.155" transform="translate(8.794 -10.088)" fill="#f5daf5" fill-rule="evenodd"/>
        <path id="Trazado_4825" data-name="Trazado 4825" d="M266.514,20.306a3.642,3.642,0,0,0-3.576,2.067,3.64,3.64,0,0,0-3.574-2.067,3.422,3.422,0,0,0-3.577,3.155c0,3.125,3.577,6.22,7.151,9.346,3.576-3.125,7.153-6.221,7.153-9.346a3.422,3.422,0,0,0-3.577-3.155" transform="translate(8.794 127.031)" fill="#f5daf5" fill-rule="evenodd"/>
        <path id="Trazado_4617" data-name="Trazado 4617" d="M38.976,6.25c2.392-2.091,4.779-4.169,6.1-6.25h-12.2c1.322,2.082,3.708,4.16,6.1,6.25" transform="translate(-16.333)" fill="#f5daf5" fill-rule="evenodd"/>
        <path id="Trazado_4618" data-name="Trazado 4618" d="M128.976,6.25c2.392-2.091,4.779-4.169,6.1-6.25h-12.2c1.322,2.082,3.708,4.16,6.1,6.25" transform="translate(-61.044)" fill="#f5daf5" fill-rule="evenodd"/>
        <path id="Trazado_4733" data-name="Trazado 4733" d="M128.976,6.25c2.392-2.091,4.779-4.169,6.1-6.25h-12.2c1.322,2.082,3.708,4.16,6.1,6.25" transform="translate(210.69)" fill="#f5daf5" fill-rule="evenodd"/>
        <path id="Trazado_4677" data-name="Trazado 4677" d="M128.976,6.25c2.392-2.091,4.779-4.169,6.1-6.25h-12.2c1.322,2.082,3.708,4.16,6.1,6.25" transform="translate(74.823)" fill="#f5daf5" fill-rule="evenodd"/>
        <path id="Trazado_4724" data-name="Trazado 4724" d="M128.976,6.25c2.392-2.091,4.779-4.169,6.1-6.25h-12.2c1.322,2.082,3.708,4.16,6.1,6.25" transform="translate(346.557)" fill="#f5daf5" fill-rule="evenodd"/>
        <path id="Trazado_4619" data-name="Trazado 4619" d="M218.976,6.25c2.392-2.091,4.78-4.169,6.1-6.25h-12.2c1.322,2.082,3.708,4.16,6.1,6.25" transform="translate(-105.755)" fill="#f5daf5" fill-rule="evenodd"/>
        <path id="Trazado_4725" data-name="Trazado 4725" d="M218.976,6.25c2.392-2.091,4.78-4.169,6.1-6.25h-12.2c1.322,2.082,3.708,4.16,6.1,6.25" transform="translate(165.979)" fill="#f5daf5" fill-rule="evenodd"/>
        <path id="Trazado_4678" data-name="Trazado 4678" d="M218.976,6.25c2.392-2.091,4.78-4.169,6.1-6.25h-12.2c1.322,2.082,3.708,4.16,6.1,6.25" transform="translate(30.112)" fill="#f5daf5" fill-rule="evenodd"/>
        <path id="Trazado_4620" data-name="Trazado 4620" d="M308.976,6.25c2.392-2.091,4.78-4.169,6.1-6.25h-12.2c1.322,2.082,3.708,4.16,6.1,6.25" transform="translate(-150.466)" fill="#f5daf5" fill-rule="evenodd"/>
        <path id="Trazado_4727" data-name="Trazado 4727" d="M308.976,6.25c2.392-2.091,4.78-4.169,6.1-6.25h-12.2c1.322,2.082,3.708,4.16,6.1,6.25" transform="translate(121.268)" fill="#f5daf5" fill-rule="evenodd"/>
        <path id="Trazado_4679" data-name="Trazado 4679" d="M308.976,6.25c2.392-2.091,4.78-4.169,6.1-6.25h-12.2c1.322,2.082,3.708,4.16,6.1,6.25" transform="translate(-14.599)" fill="#f5daf5" fill-rule="evenodd"/>
        <path id="Trazado_4621" data-name="Trazado 4621" d="M7.152,88.916a3.422,3.422,0,0,0-3.577-3.155A3.642,3.642,0,0,0,0,87.826V98.261c3.576-3.125,7.152-6.22,7.152-9.345" transform="translate(0 -42.275)" fill="#f5daf5" fill-rule="evenodd"/>
        <path id="Trazado_4793" data-name="Trazado 4793" d="M7.152,88.916a3.422,3.422,0,0,0-3.577-3.155A3.642,3.642,0,0,0,0,87.826V98.261c3.576-3.125,7.152-6.22,7.152-9.345" transform="translate(0 94.765)" fill="#f5daf5" fill-rule="evenodd"/>
        <path id="Trazado_4623" data-name="Trazado 4623" d="M86.514,85.761a3.642,3.642,0,0,0-3.576,2.067,3.64,3.64,0,0,0-3.574-2.067,3.422,3.422,0,0,0-3.577,3.155c0,3.125,3.577,6.22,7.151,9.346,3.576-3.125,7.153-6.221,7.153-9.346a3.422,3.422,0,0,0-3.577-3.155" transform="translate(-37.651 -42.275)" fill="#f5daf5" fill-rule="evenodd"/>
        <path id="Trazado_4794" data-name="Trazado 4794" d="M86.514,85.761a3.642,3.642,0,0,0-3.576,2.067,3.64,3.64,0,0,0-3.574-2.067,3.422,3.422,0,0,0-3.577,3.155c0,3.125,3.577,6.22,7.151,9.346,3.576-3.125,7.153-6.221,7.153-9.346a3.422,3.422,0,0,0-3.577-3.155" transform="translate(-37.651 94.765)" fill="#f5daf5" fill-rule="evenodd"/>
        <path id="Trazado_4735" data-name="Trazado 4735" d="M86.514,85.761a3.642,3.642,0,0,0-3.576,2.067,3.64,3.64,0,0,0-3.574-2.067,3.422,3.422,0,0,0-3.577,3.155c0,3.125,3.577,6.22,7.151,9.346,3.576-3.125,7.153-6.221,7.153-9.346a3.422,3.422,0,0,0-3.577-3.155" transform="translate(234.083 -42.275)" fill="#f5daf5" fill-rule="evenodd"/>
        <path id="Trazado_4795" data-name="Trazado 4795" d="M86.514,85.761a3.642,3.642,0,0,0-3.576,2.067,3.64,3.64,0,0,0-3.574-2.067,3.422,3.422,0,0,0-3.577,3.155c0,3.125,3.577,6.22,7.151,9.346,3.576-3.125,7.153-6.221,7.153-9.346a3.422,3.422,0,0,0-3.577-3.155" transform="translate(234.083 94.765)" fill="#f5daf5" fill-rule="evenodd"/>
        <path id="Trazado_4681" data-name="Trazado 4681" d="M86.514,85.761a3.642,3.642,0,0,0-3.576,2.067,3.64,3.64,0,0,0-3.574-2.067,3.422,3.422,0,0,0-3.577,3.155c0,3.125,3.577,6.22,7.151,9.346,3.576-3.125,7.153-6.221,7.153-9.346a3.422,3.422,0,0,0-3.577-3.155" transform="translate(98.216 -42.275)" fill="#f5daf5" fill-rule="evenodd"/>
        <path id="Trazado_4796" data-name="Trazado 4796" d="M86.514,85.761a3.642,3.642,0,0,0-3.576,2.067,3.64,3.64,0,0,0-3.574-2.067,3.422,3.422,0,0,0-3.577,3.155c0,3.125,3.577,6.22,7.151,9.346,3.576-3.125,7.153-6.221,7.153-9.346a3.422,3.422,0,0,0-3.577-3.155" transform="translate(98.216 94.765)" fill="#f5daf5" fill-rule="evenodd"/>
        <path id="Trazado_4687" data-name="Trazado 4687" d="M86.514,85.761a3.642,3.642,0,0,0-3.576,2.067,3.64,3.64,0,0,0-3.574-2.067,3.422,3.422,0,0,0-3.577,3.155c0,3.125,3.577,6.22,7.151,9.346,3.576-3.125,7.153-6.221,7.153-9.346a3.422,3.422,0,0,0-3.577-3.155" transform="translate(369.95 -42.275)" fill="#f5daf5" fill-rule="evenodd"/>
        <path id="Trazado_4797" data-name="Trazado 4797" d="M86.514,85.761a3.642,3.642,0,0,0-3.576,2.067,3.64,3.64,0,0,0-3.574-2.067,3.422,3.422,0,0,0-3.577,3.155c0,3.125,3.577,6.22,7.151,9.346,3.576-3.125,7.153-6.221,7.153-9.346a3.422,3.422,0,0,0-3.577-3.155" transform="translate(369.95 94.765)" fill="#f5daf5" fill-rule="evenodd"/>
        <path id="Trazado_4624" data-name="Trazado 4624" d="M176.514,85.761a3.642,3.642,0,0,0-3.576,2.067,3.64,3.64,0,0,0-3.574-2.067,3.422,3.422,0,0,0-3.577,3.155c0,3.125,3.577,6.22,7.151,9.346,3.576-3.125,7.153-6.221,7.153-9.346a3.422,3.422,0,0,0-3.577-3.155" transform="translate(-82.362 -42.275)" fill="#f5daf5" fill-rule="evenodd"/>
        <path id="Trazado_4798" data-name="Trazado 4798" d="M176.514,85.761a3.642,3.642,0,0,0-3.576,2.067,3.64,3.64,0,0,0-3.574-2.067,3.422,3.422,0,0,0-3.577,3.155c0,3.125,3.577,6.22,7.151,9.346,3.576-3.125,7.153-6.221,7.153-9.346a3.422,3.422,0,0,0-3.577-3.155" transform="translate(-82.362 94.765)" fill="#f5daf5" fill-rule="evenodd"/>
        <path id="Trazado_4717" data-name="Trazado 4717" d="M176.514,85.761a3.642,3.642,0,0,0-3.576,2.067,3.64,3.64,0,0,0-3.574-2.067,3.422,3.422,0,0,0-3.577,3.155c0,3.125,3.577,6.22,7.151,9.346,3.576-3.125,7.153-6.221,7.153-9.346a3.422,3.422,0,0,0-3.577-3.155" transform="translate(189.372 -42.275)" fill="#f5daf5" fill-rule="evenodd"/>
        <path id="Trazado_4799" data-name="Trazado 4799" d="M176.514,85.761a3.642,3.642,0,0,0-3.576,2.067,3.64,3.64,0,0,0-3.574-2.067,3.422,3.422,0,0,0-3.577,3.155c0,3.125,3.577,6.22,7.151,9.346,3.576-3.125,7.153-6.221,7.153-9.346a3.422,3.422,0,0,0-3.577-3.155" transform="translate(189.372 94.765)" fill="#f5daf5" fill-rule="evenodd"/>
        <path id="Trazado_4667" data-name="Trazado 4667" d="M176.514,85.761a3.642,3.642,0,0,0-3.576,2.067,3.64,3.64,0,0,0-3.574-2.067,3.422,3.422,0,0,0-3.577,3.155c0,3.125,3.577,6.22,7.151,9.346,3.576-3.125,7.153-6.221,7.153-9.346a3.422,3.422,0,0,0-3.577-3.155" transform="translate(53.505 -42.275)" fill="#f5daf5" fill-rule="evenodd"/>
        <path id="Trazado_4800" data-name="Trazado 4800" d="M176.514,85.761a3.642,3.642,0,0,0-3.576,2.067,3.64,3.64,0,0,0-3.574-2.067,3.422,3.422,0,0,0-3.577,3.155c0,3.125,3.577,6.22,7.151,9.346,3.576-3.125,7.153-6.221,7.153-9.346a3.422,3.422,0,0,0-3.577-3.155" transform="translate(53.505 94.765)" fill="#f5daf5" fill-rule="evenodd"/>
        <path id="Trazado_4625" data-name="Trazado 4625" d="M266.514,85.761a3.642,3.642,0,0,0-3.576,2.067,3.64,3.64,0,0,0-3.574-2.067,3.422,3.422,0,0,0-3.577,3.155c0,3.125,3.577,6.22,7.151,9.346,3.576-3.125,7.153-6.221,7.153-9.346a3.422,3.422,0,0,0-3.577-3.155" transform="translate(-127.073 -42.275)" fill="#f5daf5" fill-rule="evenodd"/>
        <path id="Trazado_4801" data-name="Trazado 4801" d="M266.514,85.761a3.642,3.642,0,0,0-3.576,2.067,3.64,3.64,0,0,0-3.574-2.067,3.422,3.422,0,0,0-3.577,3.155c0,3.125,3.577,6.22,7.151,9.346,3.576-3.125,7.153-6.221,7.153-9.346a3.422,3.422,0,0,0-3.577-3.155" transform="translate(-127.073 94.765)" fill="#f5daf5" fill-rule="evenodd"/>
        <path id="Trazado_4689" data-name="Trazado 4689" d="M266.514,85.761a3.642,3.642,0,0,0-3.576,2.067,3.64,3.64,0,0,0-3.574-2.067,3.422,3.422,0,0,0-3.577,3.155c0,3.125,3.577,6.22,7.151,9.346,3.576-3.125,7.153-6.221,7.153-9.346a3.422,3.422,0,0,0-3.577-3.155" transform="translate(144.661 -42.275)" fill="#f5daf5" fill-rule="evenodd"/>
        <path id="Trazado_4802" data-name="Trazado 4802" d="M266.514,85.761a3.642,3.642,0,0,0-3.576,2.067,3.64,3.64,0,0,0-3.574-2.067,3.422,3.422,0,0,0-3.577,3.155c0,3.125,3.577,6.22,7.151,9.346,3.576-3.125,7.153-6.221,7.153-9.346a3.422,3.422,0,0,0-3.577-3.155" transform="translate(144.661 94.765)" fill="#f5daf5" fill-rule="evenodd"/>
        <path id="Trazado_4668" data-name="Trazado 4668" d="M266.514,85.761a3.642,3.642,0,0,0-3.576,2.067,3.64,3.64,0,0,0-3.574-2.067,3.422,3.422,0,0,0-3.577,3.155c0,3.125,3.577,6.22,7.151,9.346,3.576-3.125,7.153-6.221,7.153-9.346a3.422,3.422,0,0,0-3.577-3.155" transform="translate(8.794 -42.275)" fill="#f5daf5" fill-rule="evenodd"/>
        <path id="Trazado_4803" data-name="Trazado 4803" d="M266.514,85.761a3.642,3.642,0,0,0-3.576,2.067,3.64,3.64,0,0,0-3.574-2.067,3.422,3.422,0,0,0-3.577,3.155c0,3.125,3.577,6.22,7.151,9.346,3.576-3.125,7.153-6.221,7.153-9.346a3.422,3.422,0,0,0-3.577-3.155" transform="translate(8.794 94.765)" fill="#f5daf5" fill-rule="evenodd"/>
        <path id="Trazado_4626" data-name="Trazado 4626" d="M41.514,53.033A3.642,3.642,0,0,0,37.939,55.1a3.64,3.64,0,0,0-3.574-2.067,3.422,3.422,0,0,0-3.577,3.156c0,3.124,3.577,6.22,7.151,9.345,3.576-3.125,7.153-6.221,7.153-9.345a3.422,3.422,0,0,0-3.577-3.156" transform="translate(-15.295 -26.346)" fill="#f5daf5" fill-rule="evenodd"/>
        <path id="Trazado_4804" data-name="Trazado 4804" d="M41.514,53.033A3.642,3.642,0,0,0,37.939,55.1a3.64,3.64,0,0,0-3.574-2.067,3.422,3.422,0,0,0-3.577,3.156c0,3.124,3.577,6.22,7.151,9.345,3.576-3.125,7.153-6.221,7.153-9.345a3.422,3.422,0,0,0-3.577-3.156" transform="translate(-15.295 110.898)" fill="#f5daf5" fill-rule="evenodd"/>
        <path id="Trazado_4627" data-name="Trazado 4627" d="M131.514,53.033a3.642,3.642,0,0,0-3.576,2.067,3.64,3.64,0,0,0-3.574-2.067,3.422,3.422,0,0,0-3.577,3.156c0,3.124,3.577,6.22,7.151,9.345,3.576-3.125,7.153-6.221,7.153-9.345a3.422,3.422,0,0,0-3.577-3.156" transform="translate(-60.006 -26.346)" fill="#f5daf5" fill-rule="evenodd"/>
        <path id="Trazado_4805" data-name="Trazado 4805" d="M131.514,53.033a3.642,3.642,0,0,0-3.576,2.067,3.64,3.64,0,0,0-3.574-2.067,3.422,3.422,0,0,0-3.577,3.156c0,3.124,3.577,6.22,7.151,9.345,3.576-3.125,7.153-6.221,7.153-9.345a3.422,3.422,0,0,0-3.577-3.156" transform="translate(-60.006 110.898)" fill="#f5daf5" fill-rule="evenodd"/>
        <path id="Trazado_4729" data-name="Trazado 4729" d="M131.514,53.033a3.642,3.642,0,0,0-3.576,2.067,3.64,3.64,0,0,0-3.574-2.067,3.422,3.422,0,0,0-3.577,3.156c0,3.124,3.577,6.22,7.151,9.345,3.576-3.125,7.153-6.221,7.153-9.345a3.422,3.422,0,0,0-3.577-3.156" transform="translate(211.728 -26.346)" fill="#f5daf5" fill-rule="evenodd"/>
        <path id="Trazado_4806" data-name="Trazado 4806" d="M131.514,53.033a3.642,3.642,0,0,0-3.576,2.067,3.64,3.64,0,0,0-3.574-2.067,3.422,3.422,0,0,0-3.577,3.156c0,3.124,3.577,6.22,7.151,9.345,3.576-3.125,7.153-6.221,7.153-9.345a3.422,3.422,0,0,0-3.577-3.156" transform="translate(211.728 110.898)" fill="#f5daf5" fill-rule="evenodd"/>
        <path id="Trazado_4671" data-name="Trazado 4671" d="M131.514,53.033a3.642,3.642,0,0,0-3.576,2.067,3.64,3.64,0,0,0-3.574-2.067,3.422,3.422,0,0,0-3.577,3.156c0,3.124,3.577,6.22,7.151,9.345,3.576-3.125,7.153-6.221,7.153-9.345a3.422,3.422,0,0,0-3.577-3.156" transform="translate(75.861 -26.346)" fill="#f5daf5" fill-rule="evenodd"/>
        <path id="Trazado_4807" data-name="Trazado 4807" d="M131.514,53.033a3.642,3.642,0,0,0-3.576,2.067,3.64,3.64,0,0,0-3.574-2.067,3.422,3.422,0,0,0-3.577,3.156c0,3.124,3.577,6.22,7.151,9.345,3.576-3.125,7.153-6.221,7.153-9.345a3.422,3.422,0,0,0-3.577-3.156" transform="translate(75.861 110.898)" fill="#f5daf5" fill-rule="evenodd"/>
        <path id="Trazado_4691" data-name="Trazado 4691" d="M131.514,53.033a3.642,3.642,0,0,0-3.576,2.067,3.64,3.64,0,0,0-3.574-2.067,3.422,3.422,0,0,0-3.577,3.156c0,3.124,3.577,6.22,7.151,9.345,3.576-3.125,7.153-6.221,7.153-9.345a3.422,3.422,0,0,0-3.577-3.156" transform="translate(347.594 -26.346)" fill="#f5daf5" fill-rule="evenodd"/>
        <path id="Trazado_4808" data-name="Trazado 4808" d="M131.514,53.033a3.642,3.642,0,0,0-3.576,2.067,3.64,3.64,0,0,0-3.574-2.067,3.422,3.422,0,0,0-3.577,3.156c0,3.124,3.577,6.22,7.151,9.345,3.576-3.125,7.153-6.221,7.153-9.345a3.422,3.422,0,0,0-3.577-3.156" transform="translate(347.594 110.898)" fill="#f5daf5" fill-rule="evenodd"/>
        <path id="Trazado_4628" data-name="Trazado 4628" d="M221.514,53.033a3.642,3.642,0,0,0-3.576,2.067,3.64,3.64,0,0,0-3.574-2.067,3.422,3.422,0,0,0-3.577,3.156c0,3.124,3.577,6.22,7.151,9.345,3.576-3.125,7.153-6.221,7.153-9.345a3.422,3.422,0,0,0-3.577-3.156" transform="translate(-104.717 -26.346)" fill="#f5daf5" fill-rule="evenodd"/>
        <path id="Trazado_4809" data-name="Trazado 4809" d="M221.514,53.033a3.642,3.642,0,0,0-3.576,2.067,3.64,3.64,0,0,0-3.574-2.067,3.422,3.422,0,0,0-3.577,3.156c0,3.124,3.577,6.22,7.151,9.345,3.576-3.125,7.153-6.221,7.153-9.345a3.422,3.422,0,0,0-3.577-3.156" transform="translate(-104.717 110.898)" fill="#f5daf5" fill-rule="evenodd"/>
        <path id="Trazado_4718" data-name="Trazado 4718" d="M221.514,53.033a3.642,3.642,0,0,0-3.576,2.067,3.64,3.64,0,0,0-3.574-2.067,3.422,3.422,0,0,0-3.577,3.156c0,3.124,3.577,6.22,7.151,9.345,3.576-3.125,7.153-6.221,7.153-9.345a3.422,3.422,0,0,0-3.577-3.156" transform="translate(167.017 -26.346)" fill="#f5daf5" fill-rule="evenodd"/>
        <path id="Trazado_4810" data-name="Trazado 4810" d="M221.514,53.033a3.642,3.642,0,0,0-3.576,2.067,3.64,3.64,0,0,0-3.574-2.067,3.422,3.422,0,0,0-3.577,3.156c0,3.124,3.577,6.22,7.151,9.345,3.576-3.125,7.153-6.221,7.153-9.345a3.422,3.422,0,0,0-3.577-3.156" transform="translate(167.017 110.898)" fill="#f5daf5" fill-rule="evenodd"/>
        <path id="Trazado_4669" data-name="Trazado 4669" d="M221.514,53.033a3.642,3.642,0,0,0-3.576,2.067,3.64,3.64,0,0,0-3.574-2.067,3.422,3.422,0,0,0-3.577,3.156c0,3.124,3.577,6.22,7.151,9.345,3.576-3.125,7.153-6.221,7.153-9.345a3.422,3.422,0,0,0-3.577-3.156" transform="translate(31.15 -26.346)" fill="#f5daf5" fill-rule="evenodd"/>
        <path id="Trazado_4811" data-name="Trazado 4811" d="M221.514,53.033a3.642,3.642,0,0,0-3.576,2.067,3.64,3.64,0,0,0-3.574-2.067,3.422,3.422,0,0,0-3.577,3.156c0,3.124,3.577,6.22,7.151,9.345,3.576-3.125,7.153-6.221,7.153-9.345a3.422,3.422,0,0,0-3.577-3.156" transform="translate(31.15 110.898)" fill="#f5daf5" fill-rule="evenodd"/>
        <path id="Trazado_4629" data-name="Trazado 4629" d="M311.514,53.033a3.642,3.642,0,0,0-3.576,2.067,3.64,3.64,0,0,0-3.574-2.067,3.422,3.422,0,0,0-3.577,3.156c0,3.124,3.577,6.22,7.151,9.345,3.576-3.125,7.153-6.221,7.153-9.345a3.422,3.422,0,0,0-3.577-3.156" transform="translate(-149.428 -26.346)" fill="#f5daf5" fill-rule="evenodd"/>
        <path id="Trazado_4812" data-name="Trazado 4812" d="M311.514,53.033a3.642,3.642,0,0,0-3.576,2.067,3.64,3.64,0,0,0-3.574-2.067,3.422,3.422,0,0,0-3.577,3.156c0,3.124,3.577,6.22,7.151,9.345,3.576-3.125,7.153-6.221,7.153-9.345a3.422,3.422,0,0,0-3.577-3.156" transform="translate(-149.428 110.898)" fill="#f5daf5" fill-rule="evenodd"/>
        <path id="Trazado_4693" data-name="Trazado 4693" d="M311.514,53.033a3.642,3.642,0,0,0-3.576,2.067,3.64,3.64,0,0,0-3.574-2.067,3.422,3.422,0,0,0-3.577,3.156c0,3.124,3.577,6.22,7.151,9.345,3.576-3.125,7.153-6.221,7.153-9.345a3.422,3.422,0,0,0-3.577-3.156" transform="translate(122.305 -26.346)" fill="#f5daf5" fill-rule="evenodd"/>
        <path id="Trazado_4813" data-name="Trazado 4813" d="M311.514,53.033a3.642,3.642,0,0,0-3.576,2.067,3.64,3.64,0,0,0-3.574-2.067,3.422,3.422,0,0,0-3.577,3.156c0,3.124,3.577,6.22,7.151,9.345,3.576-3.125,7.153-6.221,7.153-9.345a3.422,3.422,0,0,0-3.577-3.156" transform="translate(122.305 110.898)" fill="#f5daf5" fill-rule="evenodd"/>
        <path id="Trazado_4670" data-name="Trazado 4670" d="M311.514,53.033a3.642,3.642,0,0,0-3.576,2.067,3.64,3.64,0,0,0-3.574-2.067,3.422,3.422,0,0,0-3.577,3.156c0,3.124,3.577,6.22,7.151,9.345,3.576-3.125,7.153-6.221,7.153-9.345a3.422,3.422,0,0,0-3.577-3.156" transform="translate(-13.561 -26.346)" fill="#f5daf5" fill-rule="evenodd"/>
        <path id="Trazado_4814" data-name="Trazado 4814" d="M311.514,53.033a3.642,3.642,0,0,0-3.576,2.067,3.64,3.64,0,0,0-3.574-2.067,3.422,3.422,0,0,0-3.577,3.156c0,3.124,3.577,6.22,7.151,9.345,3.576-3.125,7.153-6.221,7.153-9.345a3.422,3.422,0,0,0-3.577-3.156" transform="translate(-13.561 110.898)" fill="#f5daf5" fill-rule="evenodd"/>
        <path id="Trazado_4630" data-name="Trazado 4630" d="M7.152,154.371a3.422,3.422,0,0,0-3.577-3.155A3.642,3.642,0,0,0,0,153.281v10.435c3.576-3.125,7.152-6.22,7.152-9.345" transform="translate(0 -74.541)" fill="#f5daf5" fill-rule="evenodd"/>
        <path id="Trazado_4748" data-name="Trazado 4748" d="M7.152,154.371a3.422,3.422,0,0,0-3.577-3.155A3.642,3.642,0,0,0,0,153.281v10.435c3.576-3.125,7.152-6.22,7.152-9.345" transform="translate(0 62.5)" fill="#f5daf5" fill-rule="evenodd"/>
        <path id="Trazado_4632" data-name="Trazado 4632" d="M86.514,151.215a3.642,3.642,0,0,0-3.576,2.067,3.64,3.64,0,0,0-3.574-2.067,3.422,3.422,0,0,0-3.577,3.155c0,3.125,3.577,6.22,7.151,9.346,3.576-3.125,7.153-6.221,7.153-9.346a3.422,3.422,0,0,0-3.577-3.155" transform="translate(-37.651 -74.54)" fill="#f5daf5" fill-rule="evenodd"/>
        <path id="Trazado_4749" data-name="Trazado 4749" d="M86.514,151.215a3.642,3.642,0,0,0-3.576,2.067,3.64,3.64,0,0,0-3.574-2.067,3.422,3.422,0,0,0-3.577,3.155c0,3.125,3.577,6.22,7.151,9.346,3.576-3.125,7.153-6.221,7.153-9.346a3.422,3.422,0,0,0-3.577-3.155" transform="translate(-37.651 62.5)" fill="#f5daf5" fill-rule="evenodd"/>
        <path id="Trazado_4736" data-name="Trazado 4736" d="M86.514,151.215a3.642,3.642,0,0,0-3.576,2.067,3.64,3.64,0,0,0-3.574-2.067,3.422,3.422,0,0,0-3.577,3.155c0,3.125,3.577,6.22,7.151,9.346,3.576-3.125,7.153-6.221,7.153-9.346a3.422,3.422,0,0,0-3.577-3.155" transform="translate(234.083 -74.54)" fill="#f5daf5" fill-rule="evenodd"/>
        <path id="Trazado_4750" data-name="Trazado 4750" d="M86.514,151.215a3.642,3.642,0,0,0-3.576,2.067,3.64,3.64,0,0,0-3.574-2.067,3.422,3.422,0,0,0-3.577,3.155c0,3.125,3.577,6.22,7.151,9.346,3.576-3.125,7.153-6.221,7.153-9.346a3.422,3.422,0,0,0-3.577-3.155" transform="translate(234.083 62.5)" fill="#f5daf5" fill-rule="evenodd"/>
        <path id="Trazado_4682" data-name="Trazado 4682" d="M86.514,151.215a3.642,3.642,0,0,0-3.576,2.067,3.64,3.64,0,0,0-3.574-2.067,3.422,3.422,0,0,0-3.577,3.155c0,3.125,3.577,6.22,7.151,9.346,3.576-3.125,7.153-6.221,7.153-9.346a3.422,3.422,0,0,0-3.577-3.155" transform="translate(98.216 -74.54)" fill="#f5daf5" fill-rule="evenodd"/>
        <path id="Trazado_4751" data-name="Trazado 4751" d="M86.514,151.215a3.642,3.642,0,0,0-3.576,2.067,3.64,3.64,0,0,0-3.574-2.067,3.422,3.422,0,0,0-3.577,3.155c0,3.125,3.577,6.22,7.151,9.346,3.576-3.125,7.153-6.221,7.153-9.346a3.422,3.422,0,0,0-3.577-3.155" transform="translate(98.216 62.5)" fill="#f5daf5" fill-rule="evenodd"/>
        <path id="Trazado_4695" data-name="Trazado 4695" d="M86.514,151.215a3.642,3.642,0,0,0-3.576,2.067,3.64,3.64,0,0,0-3.574-2.067,3.422,3.422,0,0,0-3.577,3.155c0,3.125,3.577,6.22,7.151,9.346,3.576-3.125,7.153-6.221,7.153-9.346a3.422,3.422,0,0,0-3.577-3.155" transform="translate(369.95 -74.54)" fill="#f5daf5" fill-rule="evenodd"/>
        <path id="Trazado_4752" data-name="Trazado 4752" d="M86.514,151.215a3.642,3.642,0,0,0-3.576,2.067,3.64,3.64,0,0,0-3.574-2.067,3.422,3.422,0,0,0-3.577,3.155c0,3.125,3.577,6.22,7.151,9.346,3.576-3.125,7.153-6.221,7.153-9.346a3.422,3.422,0,0,0-3.577-3.155" transform="translate(369.95 62.5)" fill="#f5daf5" fill-rule="evenodd"/>
        <path id="Trazado_4633" data-name="Trazado 4633" d="M176.514,151.215a3.642,3.642,0,0,0-3.576,2.067,3.64,3.64,0,0,0-3.574-2.067,3.422,3.422,0,0,0-3.577,3.155c0,3.125,3.577,6.22,7.151,9.346,3.576-3.125,7.153-6.221,7.153-9.346a3.422,3.422,0,0,0-3.577-3.155" transform="translate(-82.362 -74.54)" fill="#f5daf5" fill-rule="evenodd"/>
        <path id="Trazado_4753" data-name="Trazado 4753" d="M176.514,151.215a3.642,3.642,0,0,0-3.576,2.067,3.64,3.64,0,0,0-3.574-2.067,3.422,3.422,0,0,0-3.577,3.155c0,3.125,3.577,6.22,7.151,9.346,3.576-3.125,7.153-6.221,7.153-9.346a3.422,3.422,0,0,0-3.577-3.155" transform="translate(-82.362 62.5)" fill="#f5daf5" fill-rule="evenodd"/>
        <path id="Trazado_4719" data-name="Trazado 4719" d="M176.514,151.215a3.642,3.642,0,0,0-3.576,2.067,3.64,3.64,0,0,0-3.574-2.067,3.422,3.422,0,0,0-3.577,3.155c0,3.125,3.577,6.22,7.151,9.346,3.576-3.125,7.153-6.221,7.153-9.346a3.422,3.422,0,0,0-3.577-3.155" transform="translate(189.372 -74.54)" fill="#f5daf5" fill-rule="evenodd"/>
        <path id="Trazado_4754" data-name="Trazado 4754" d="M176.514,151.215a3.642,3.642,0,0,0-3.576,2.067,3.64,3.64,0,0,0-3.574-2.067,3.422,3.422,0,0,0-3.577,3.155c0,3.125,3.577,6.22,7.151,9.346,3.576-3.125,7.153-6.221,7.153-9.346a3.422,3.422,0,0,0-3.577-3.155" transform="translate(189.372 62.5)" fill="#f5daf5" fill-rule="evenodd"/>
        <path id="Trazado_4663" data-name="Trazado 4663" d="M176.514,151.215a3.642,3.642,0,0,0-3.576,2.067,3.64,3.64,0,0,0-3.574-2.067,3.422,3.422,0,0,0-3.577,3.155c0,3.125,3.577,6.22,7.151,9.346,3.576-3.125,7.153-6.221,7.153-9.346a3.422,3.422,0,0,0-3.577-3.155" transform="translate(53.505 -74.54)" fill="#f5daf5" fill-rule="evenodd"/>
        <path id="Trazado_4755" data-name="Trazado 4755" d="M176.514,151.215a3.642,3.642,0,0,0-3.576,2.067,3.64,3.64,0,0,0-3.574-2.067,3.422,3.422,0,0,0-3.577,3.155c0,3.125,3.577,6.22,7.151,9.346,3.576-3.125,7.153-6.221,7.153-9.346a3.422,3.422,0,0,0-3.577-3.155" transform="translate(53.505 62.5)" fill="#f5daf5" fill-rule="evenodd"/>
        <path id="Trazado_4634" data-name="Trazado 4634" d="M266.514,151.215a3.642,3.642,0,0,0-3.576,2.067,3.64,3.64,0,0,0-3.574-2.067,3.422,3.422,0,0,0-3.577,3.155c0,3.125,3.577,6.22,7.151,9.346,3.576-3.125,7.153-6.221,7.153-9.346a3.422,3.422,0,0,0-3.577-3.155" transform="translate(-127.073 -74.54)" fill="#f5daf5" fill-rule="evenodd"/>
        <path id="Trazado_4756" data-name="Trazado 4756" d="M266.514,151.215a3.642,3.642,0,0,0-3.576,2.067,3.64,3.64,0,0,0-3.574-2.067,3.422,3.422,0,0,0-3.577,3.155c0,3.125,3.577,6.22,7.151,9.346,3.576-3.125,7.153-6.221,7.153-9.346a3.422,3.422,0,0,0-3.577-3.155" transform="translate(-127.073 62.5)" fill="#f5daf5" fill-rule="evenodd"/>
        <path id="Trazado_4697" data-name="Trazado 4697" d="M266.514,151.215a3.642,3.642,0,0,0-3.576,2.067,3.64,3.64,0,0,0-3.574-2.067,3.422,3.422,0,0,0-3.577,3.155c0,3.125,3.577,6.22,7.151,9.346,3.576-3.125,7.153-6.221,7.153-9.346a3.422,3.422,0,0,0-3.577-3.155" transform="translate(144.661 -74.54)" fill="#f5daf5" fill-rule="evenodd"/>
        <path id="Trazado_4757" data-name="Trazado 4757" d="M266.514,151.215a3.642,3.642,0,0,0-3.576,2.067,3.64,3.64,0,0,0-3.574-2.067,3.422,3.422,0,0,0-3.577,3.155c0,3.125,3.577,6.22,7.151,9.346,3.576-3.125,7.153-6.221,7.153-9.346a3.422,3.422,0,0,0-3.577-3.155" transform="translate(144.661 62.5)" fill="#f5daf5" fill-rule="evenodd"/>
        <path id="Trazado_4662" data-name="Trazado 4662" d="M266.514,151.215a3.642,3.642,0,0,0-3.576,2.067,3.64,3.64,0,0,0-3.574-2.067,3.422,3.422,0,0,0-3.577,3.155c0,3.125,3.577,6.22,7.151,9.346,3.576-3.125,7.153-6.221,7.153-9.346a3.422,3.422,0,0,0-3.577-3.155" transform="translate(8.794 -74.54)" fill="#f5daf5" fill-rule="evenodd"/>
        <path id="Trazado_4758" data-name="Trazado 4758" d="M266.514,151.215a3.642,3.642,0,0,0-3.576,2.067,3.64,3.64,0,0,0-3.574-2.067,3.422,3.422,0,0,0-3.577,3.155c0,3.125,3.577,6.22,7.151,9.346,3.576-3.125,7.153-6.221,7.153-9.346a3.422,3.422,0,0,0-3.577-3.155" transform="translate(8.794 62.5)" fill="#f5daf5" fill-rule="evenodd"/>
        <path id="Trazado_4635" data-name="Trazado 4635" d="M41.514,118.488a3.642,3.642,0,0,0-3.576,2.067,3.64,3.64,0,0,0-3.574-2.067,3.422,3.422,0,0,0-3.577,3.155c0,3.125,3.577,6.22,7.151,9.346,3.576-3.125,7.153-6.221,7.153-9.346a3.422,3.422,0,0,0-3.577-3.155" transform="translate(-15.295 -58.408)" fill="#f5daf5" fill-rule="evenodd"/>
        <path id="Trazado_4759" data-name="Trazado 4759" d="M41.514,118.488a3.642,3.642,0,0,0-3.576,2.067,3.64,3.64,0,0,0-3.574-2.067,3.422,3.422,0,0,0-3.577,3.155c0,3.125,3.577,6.22,7.151,9.346,3.576-3.125,7.153-6.221,7.153-9.346a3.422,3.422,0,0,0-3.577-3.155" transform="translate(-15.295 78.633)" fill="#f5daf5" fill-rule="evenodd"/>
        <path id="Trazado_4636" data-name="Trazado 4636" d="M131.514,118.488a3.642,3.642,0,0,0-3.576,2.067,3.64,3.64,0,0,0-3.574-2.067,3.422,3.422,0,0,0-3.577,3.155c0,3.125,3.577,6.22,7.151,9.346,3.576-3.125,7.153-6.221,7.153-9.346a3.422,3.422,0,0,0-3.577-3.155" transform="translate(-60.006 -58.408)" fill="#f5daf5" fill-rule="evenodd"/>
        <path id="Trazado_4760" data-name="Trazado 4760" d="M131.514,118.488a3.642,3.642,0,0,0-3.576,2.067,3.64,3.64,0,0,0-3.574-2.067,3.422,3.422,0,0,0-3.577,3.155c0,3.125,3.577,6.22,7.151,9.346,3.576-3.125,7.153-6.221,7.153-9.346a3.422,3.422,0,0,0-3.577-3.155" transform="translate(-60.006 78.633)" fill="#f5daf5" fill-rule="evenodd"/>
        <path id="Trazado_4730" data-name="Trazado 4730" d="M131.514,118.488a3.642,3.642,0,0,0-3.576,2.067,3.64,3.64,0,0,0-3.574-2.067,3.422,3.422,0,0,0-3.577,3.155c0,3.125,3.577,6.22,7.151,9.346,3.576-3.125,7.153-6.221,7.153-9.346a3.422,3.422,0,0,0-3.577-3.155" transform="translate(211.728 -58.408)" fill="#f5daf5" fill-rule="evenodd"/>
        <path id="Trazado_4761" data-name="Trazado 4761" d="M131.514,118.488a3.642,3.642,0,0,0-3.576,2.067,3.64,3.64,0,0,0-3.574-2.067,3.422,3.422,0,0,0-3.577,3.155c0,3.125,3.577,6.22,7.151,9.346,3.576-3.125,7.153-6.221,7.153-9.346a3.422,3.422,0,0,0-3.577-3.155" transform="translate(211.728 78.633)" fill="#f5daf5" fill-rule="evenodd"/>
        <path id="Trazado_4672" data-name="Trazado 4672" d="M131.514,118.488a3.642,3.642,0,0,0-3.576,2.067,3.64,3.64,0,0,0-3.574-2.067,3.422,3.422,0,0,0-3.577,3.155c0,3.125,3.577,6.22,7.151,9.346,3.576-3.125,7.153-6.221,7.153-9.346a3.422,3.422,0,0,0-3.577-3.155" transform="translate(75.861 -58.408)" fill="#f5daf5" fill-rule="evenodd"/>
        <path id="Trazado_4762" data-name="Trazado 4762" d="M131.514,118.488a3.642,3.642,0,0,0-3.576,2.067,3.64,3.64,0,0,0-3.574-2.067,3.422,3.422,0,0,0-3.577,3.155c0,3.125,3.577,6.22,7.151,9.346,3.576-3.125,7.153-6.221,7.153-9.346a3.422,3.422,0,0,0-3.577-3.155" transform="translate(75.861 78.633)" fill="#f5daf5" fill-rule="evenodd"/>
        <path id="Trazado_4699" data-name="Trazado 4699" d="M131.514,118.488a3.642,3.642,0,0,0-3.576,2.067,3.64,3.64,0,0,0-3.574-2.067,3.422,3.422,0,0,0-3.577,3.155c0,3.125,3.577,6.22,7.151,9.346,3.576-3.125,7.153-6.221,7.153-9.346a3.422,3.422,0,0,0-3.577-3.155" transform="translate(347.594 -58.408)" fill="#f5daf5" fill-rule="evenodd"/>
        <path id="Trazado_4763" data-name="Trazado 4763" d="M131.514,118.488a3.642,3.642,0,0,0-3.576,2.067,3.64,3.64,0,0,0-3.574-2.067,3.422,3.422,0,0,0-3.577,3.155c0,3.125,3.577,6.22,7.151,9.346,3.576-3.125,7.153-6.221,7.153-9.346a3.422,3.422,0,0,0-3.577-3.155" transform="translate(347.594 78.633)" fill="#f5daf5" fill-rule="evenodd"/>
        <path id="Trazado_4637" data-name="Trazado 4637" d="M221.514,118.488a3.642,3.642,0,0,0-3.576,2.067,3.64,3.64,0,0,0-3.574-2.067,3.422,3.422,0,0,0-3.577,3.155c0,3.125,3.577,6.22,7.151,9.346,3.576-3.125,7.153-6.221,7.153-9.346a3.422,3.422,0,0,0-3.577-3.155" transform="translate(-104.717 -58.408)" fill="#f5daf5" fill-rule="evenodd"/>
        <path id="Trazado_4764" data-name="Trazado 4764" d="M221.514,118.488a3.642,3.642,0,0,0-3.576,2.067,3.64,3.64,0,0,0-3.574-2.067,3.422,3.422,0,0,0-3.577,3.155c0,3.125,3.577,6.22,7.151,9.346,3.576-3.125,7.153-6.221,7.153-9.346a3.422,3.422,0,0,0-3.577-3.155" transform="translate(-104.717 78.633)" fill="#f5daf5" fill-rule="evenodd"/>
        <path id="Trazado_4720" data-name="Trazado 4720" d="M221.514,118.488a3.642,3.642,0,0,0-3.576,2.067,3.64,3.64,0,0,0-3.574-2.067,3.422,3.422,0,0,0-3.577,3.155c0,3.125,3.577,6.22,7.151,9.346,3.576-3.125,7.153-6.221,7.153-9.346a3.422,3.422,0,0,0-3.577-3.155" transform="translate(167.017 -58.408)" fill="#f5daf5" fill-rule="evenodd"/>
        <path id="Trazado_4765" data-name="Trazado 4765" d="M221.514,118.488a3.642,3.642,0,0,0-3.576,2.067,3.64,3.64,0,0,0-3.574-2.067,3.422,3.422,0,0,0-3.577,3.155c0,3.125,3.577,6.22,7.151,9.346,3.576-3.125,7.153-6.221,7.153-9.346a3.422,3.422,0,0,0-3.577-3.155" transform="translate(167.017 78.633)" fill="#f5daf5" fill-rule="evenodd"/>
        <path id="Trazado_4665" data-name="Trazado 4665" d="M221.514,118.488a3.642,3.642,0,0,0-3.576,2.067,3.64,3.64,0,0,0-3.574-2.067,3.422,3.422,0,0,0-3.577,3.155c0,3.125,3.577,6.22,7.151,9.346,3.576-3.125,7.153-6.221,7.153-9.346a3.422,3.422,0,0,0-3.577-3.155" transform="translate(31.15 -58.408)" fill="#f5daf5" fill-rule="evenodd"/>
        <path id="Trazado_4766" data-name="Trazado 4766" d="M221.514,118.488a3.642,3.642,0,0,0-3.576,2.067,3.64,3.64,0,0,0-3.574-2.067,3.422,3.422,0,0,0-3.577,3.155c0,3.125,3.577,6.22,7.151,9.346,3.576-3.125,7.153-6.221,7.153-9.346a3.422,3.422,0,0,0-3.577-3.155" transform="translate(31.15 78.633)" fill="#f5daf5" fill-rule="evenodd"/>
        <path id="Trazado_4638" data-name="Trazado 4638" d="M311.514,118.488a3.642,3.642,0,0,0-3.576,2.067,3.64,3.64,0,0,0-3.574-2.067,3.422,3.422,0,0,0-3.577,3.155c0,3.125,3.577,6.22,7.151,9.346,3.576-3.125,7.153-6.221,7.153-9.346a3.422,3.422,0,0,0-3.577-3.155" transform="translate(-149.428 -58.408)" fill="#f5daf5" fill-rule="evenodd"/>
        <path id="Trazado_4767" data-name="Trazado 4767" d="M311.514,118.488a3.642,3.642,0,0,0-3.576,2.067,3.64,3.64,0,0,0-3.574-2.067,3.422,3.422,0,0,0-3.577,3.155c0,3.125,3.577,6.22,7.151,9.346,3.576-3.125,7.153-6.221,7.153-9.346a3.422,3.422,0,0,0-3.577-3.155" transform="translate(-149.428 78.633)" fill="#f5daf5" fill-rule="evenodd"/>
        <path id="Trazado_4701" data-name="Trazado 4701" d="M311.514,118.488a3.642,3.642,0,0,0-3.576,2.067,3.64,3.64,0,0,0-3.574-2.067,3.422,3.422,0,0,0-3.577,3.155c0,3.125,3.577,6.22,7.151,9.346,3.576-3.125,7.153-6.221,7.153-9.346a3.422,3.422,0,0,0-3.577-3.155" transform="translate(122.305 -58.408)" fill="#f5daf5" fill-rule="evenodd"/>
        <path id="Trazado_4768" data-name="Trazado 4768" d="M311.514,118.488a3.642,3.642,0,0,0-3.576,2.067,3.64,3.64,0,0,0-3.574-2.067,3.422,3.422,0,0,0-3.577,3.155c0,3.125,3.577,6.22,7.151,9.346,3.576-3.125,7.153-6.221,7.153-9.346a3.422,3.422,0,0,0-3.577-3.155" transform="translate(122.305 78.633)" fill="#f5daf5" fill-rule="evenodd"/>
        <path id="Trazado_4666" data-name="Trazado 4666" d="M311.514,118.488a3.642,3.642,0,0,0-3.576,2.067,3.64,3.64,0,0,0-3.574-2.067,3.422,3.422,0,0,0-3.577,3.155c0,3.125,3.577,6.22,7.151,9.346,3.576-3.125,7.153-6.221,7.153-9.346a3.422,3.422,0,0,0-3.577-3.155" transform="translate(-13.561 -58.408)" fill="#f5daf5" fill-rule="evenodd"/>
        <path id="Trazado_4769" data-name="Trazado 4769" d="M311.514,118.488a3.642,3.642,0,0,0-3.576,2.067,3.64,3.64,0,0,0-3.574-2.067,3.422,3.422,0,0,0-3.577,3.155c0,3.125,3.577,6.22,7.151,9.346,3.576-3.125,7.153-6.221,7.153-9.346a3.422,3.422,0,0,0-3.577-3.155" transform="translate(-13.561 78.633)" fill="#f5daf5" fill-rule="evenodd"/>
        <path id="Trazado_4639" data-name="Trazado 4639" d="M7.152,219.825a3.422,3.422,0,0,0-3.577-3.155A3.642,3.642,0,0,0,0,218.735V229.17c3.576-3.125,7.152-6.22,7.152-9.345" transform="translate(0 -106.805)" fill="#f5daf5" fill-rule="evenodd"/>
        <path id="Trazado_4770" data-name="Trazado 4770" d="M7.152,219.825a3.422,3.422,0,0,0-3.577-3.155A3.642,3.642,0,0,0,0,218.735V229.17c3.576-3.125,7.152-6.22,7.152-9.345" transform="translate(0 30.361)" fill="#f5daf5" fill-rule="evenodd"/>
        <path id="Trazado_4641" data-name="Trazado 4641" d="M86.514,216.67a3.642,3.642,0,0,0-3.576,2.067,3.64,3.64,0,0,0-3.574-2.067,3.422,3.422,0,0,0-3.577,3.155c0,3.125,3.577,6.22,7.151,9.346,3.576-3.125,7.153-6.221,7.153-9.346a3.422,3.422,0,0,0-3.577-3.155" transform="translate(-37.651 -106.805)" fill="#f5daf5" fill-rule="evenodd"/>
        <path id="Trazado_4771" data-name="Trazado 4771" d="M86.514,216.67a3.642,3.642,0,0,0-3.576,2.067,3.64,3.64,0,0,0-3.574-2.067,3.422,3.422,0,0,0-3.577,3.155c0,3.125,3.577,6.22,7.151,9.346,3.576-3.125,7.153-6.221,7.153-9.346a3.422,3.422,0,0,0-3.577-3.155" transform="translate(-37.651 30.361)" fill="#f5daf5" fill-rule="evenodd"/>
        <path id="Trazado_4737" data-name="Trazado 4737" d="M86.514,216.67a3.642,3.642,0,0,0-3.576,2.067,3.64,3.64,0,0,0-3.574-2.067,3.422,3.422,0,0,0-3.577,3.155c0,3.125,3.577,6.22,7.151,9.346,3.576-3.125,7.153-6.221,7.153-9.346a3.422,3.422,0,0,0-3.577-3.155" transform="translate(234.083 -106.805)" fill="#f5daf5" fill-rule="evenodd"/>
        <path id="Trazado_4772" data-name="Trazado 4772" d="M86.514,216.67a3.642,3.642,0,0,0-3.576,2.067,3.64,3.64,0,0,0-3.574-2.067,3.422,3.422,0,0,0-3.577,3.155c0,3.125,3.577,6.22,7.151,9.346,3.576-3.125,7.153-6.221,7.153-9.346a3.422,3.422,0,0,0-3.577-3.155" transform="translate(234.083 30.361)" fill="#f5daf5" fill-rule="evenodd"/>
        <path id="Trazado_4683" data-name="Trazado 4683" d="M86.514,216.67a3.642,3.642,0,0,0-3.576,2.067,3.64,3.64,0,0,0-3.574-2.067,3.422,3.422,0,0,0-3.577,3.155c0,3.125,3.577,6.22,7.151,9.346,3.576-3.125,7.153-6.221,7.153-9.346a3.422,3.422,0,0,0-3.577-3.155" transform="translate(98.216 -106.805)" fill="#f5daf5" fill-rule="evenodd"/>
        <path id="Trazado_4773" data-name="Trazado 4773" d="M86.514,216.67a3.642,3.642,0,0,0-3.576,2.067,3.64,3.64,0,0,0-3.574-2.067,3.422,3.422,0,0,0-3.577,3.155c0,3.125,3.577,6.22,7.151,9.346,3.576-3.125,7.153-6.221,7.153-9.346a3.422,3.422,0,0,0-3.577-3.155" transform="translate(98.216 30.361)" fill="#f5daf5" fill-rule="evenodd"/>
        <path id="Trazado_4703" data-name="Trazado 4703" d="M86.514,216.67a3.642,3.642,0,0,0-3.576,2.067,3.64,3.64,0,0,0-3.574-2.067,3.422,3.422,0,0,0-3.577,3.155c0,3.125,3.577,6.22,7.151,9.346,3.576-3.125,7.153-6.221,7.153-9.346a3.422,3.422,0,0,0-3.577-3.155" transform="translate(369.95 -106.805)" fill="#f5daf5" fill-rule="evenodd"/>
        <path id="Trazado_4774" data-name="Trazado 4774" d="M86.514,216.67a3.642,3.642,0,0,0-3.576,2.067,3.64,3.64,0,0,0-3.574-2.067,3.422,3.422,0,0,0-3.577,3.155c0,3.125,3.577,6.22,7.151,9.346,3.576-3.125,7.153-6.221,7.153-9.346a3.422,3.422,0,0,0-3.577-3.155" transform="translate(369.95 30.361)" fill="#f5daf5" fill-rule="evenodd"/>
        <path id="Trazado_4642" data-name="Trazado 4642" d="M176.514,216.67a3.642,3.642,0,0,0-3.576,2.067,3.64,3.64,0,0,0-3.574-2.067,3.422,3.422,0,0,0-3.577,3.155c0,3.125,3.577,6.22,7.151,9.346,3.576-3.125,7.153-6.221,7.153-9.346a3.422,3.422,0,0,0-3.577-3.155" transform="translate(-82.362 -106.805)" fill="#f5daf5" fill-rule="evenodd"/>
        <path id="Trazado_4775" data-name="Trazado 4775" d="M176.514,216.67a3.642,3.642,0,0,0-3.576,2.067,3.64,3.64,0,0,0-3.574-2.067,3.422,3.422,0,0,0-3.577,3.155c0,3.125,3.577,6.22,7.151,9.346,3.576-3.125,7.153-6.221,7.153-9.346a3.422,3.422,0,0,0-3.577-3.155" transform="translate(-82.362 30.361)" fill="#f5daf5" fill-rule="evenodd"/>
        <path id="Trazado_4721" data-name="Trazado 4721" d="M176.514,216.67a3.642,3.642,0,0,0-3.576,2.067,3.64,3.64,0,0,0-3.574-2.067,3.422,3.422,0,0,0-3.577,3.155c0,3.125,3.577,6.22,7.151,9.346,3.576-3.125,7.153-6.221,7.153-9.346a3.422,3.422,0,0,0-3.577-3.155" transform="translate(189.372 -106.805)" fill="#f5daf5" fill-rule="evenodd"/>
        <path id="Trazado_4776" data-name="Trazado 4776" d="M176.514,216.67a3.642,3.642,0,0,0-3.576,2.067,3.64,3.64,0,0,0-3.574-2.067,3.422,3.422,0,0,0-3.577,3.155c0,3.125,3.577,6.22,7.151,9.346,3.576-3.125,7.153-6.221,7.153-9.346a3.422,3.422,0,0,0-3.577-3.155" transform="translate(189.372 30.361)" fill="#f5daf5" fill-rule="evenodd"/>
        <path id="Trazado_4664" data-name="Trazado 4664" d="M176.514,216.67a3.642,3.642,0,0,0-3.576,2.067,3.64,3.64,0,0,0-3.574-2.067,3.422,3.422,0,0,0-3.577,3.155c0,3.125,3.577,6.22,7.151,9.346,3.576-3.125,7.153-6.221,7.153-9.346a3.422,3.422,0,0,0-3.577-3.155" transform="translate(53.505 -106.805)" fill="#f5daf5" fill-rule="evenodd"/>
        <path id="Trazado_4777" data-name="Trazado 4777" d="M176.514,216.67a3.642,3.642,0,0,0-3.576,2.067,3.64,3.64,0,0,0-3.574-2.067,3.422,3.422,0,0,0-3.577,3.155c0,3.125,3.577,6.22,7.151,9.346,3.576-3.125,7.153-6.221,7.153-9.346a3.422,3.422,0,0,0-3.577-3.155" transform="translate(53.505 30.361)" fill="#f5daf5" fill-rule="evenodd"/>
        <path id="Trazado_4643" data-name="Trazado 4643" d="M266.514,216.67a3.642,3.642,0,0,0-3.576,2.067,3.64,3.64,0,0,0-3.574-2.067,3.422,3.422,0,0,0-3.577,3.155c0,3.125,3.577,6.22,7.151,9.346,3.576-3.125,7.153-6.221,7.153-9.346a3.422,3.422,0,0,0-3.577-3.155" transform="translate(-127.073 -106.805)" fill="#f5daf5" fill-rule="evenodd"/>
        <path id="Trazado_4778" data-name="Trazado 4778" d="M266.514,216.67a3.642,3.642,0,0,0-3.576,2.067,3.64,3.64,0,0,0-3.574-2.067,3.422,3.422,0,0,0-3.577,3.155c0,3.125,3.577,6.22,7.151,9.346,3.576-3.125,7.153-6.221,7.153-9.346a3.422,3.422,0,0,0-3.577-3.155" transform="translate(-127.073 30.361)" fill="#f5daf5" fill-rule="evenodd"/>
        <path id="Trazado_4705" data-name="Trazado 4705" d="M266.514,216.67a3.642,3.642,0,0,0-3.576,2.067,3.64,3.64,0,0,0-3.574-2.067,3.422,3.422,0,0,0-3.577,3.155c0,3.125,3.577,6.22,7.151,9.346,3.576-3.125,7.153-6.221,7.153-9.346a3.422,3.422,0,0,0-3.577-3.155" transform="translate(144.661 -106.805)" fill="#f5daf5" fill-rule="evenodd"/>
        <path id="Trazado_4779" data-name="Trazado 4779" d="M266.514,216.67a3.642,3.642,0,0,0-3.576,2.067,3.64,3.64,0,0,0-3.574-2.067,3.422,3.422,0,0,0-3.577,3.155c0,3.125,3.577,6.22,7.151,9.346,3.576-3.125,7.153-6.221,7.153-9.346a3.422,3.422,0,0,0-3.577-3.155" transform="translate(144.661 30.361)" fill="#f5daf5" fill-rule="evenodd"/>
        <path id="Trazado_4659" data-name="Trazado 4659" d="M266.514,216.67a3.642,3.642,0,0,0-3.576,2.067,3.64,3.64,0,0,0-3.574-2.067,3.422,3.422,0,0,0-3.577,3.155c0,3.125,3.577,6.22,7.151,9.346,3.576-3.125,7.153-6.221,7.153-9.346a3.422,3.422,0,0,0-3.577-3.155" transform="translate(8.794 -106.805)" fill="#f5daf5" fill-rule="evenodd"/>
        <path id="Trazado_4780" data-name="Trazado 4780" d="M266.514,216.67a3.642,3.642,0,0,0-3.576,2.067,3.64,3.64,0,0,0-3.574-2.067,3.422,3.422,0,0,0-3.577,3.155c0,3.125,3.577,6.22,7.151,9.346,3.576-3.125,7.153-6.221,7.153-9.346a3.422,3.422,0,0,0-3.577-3.155" transform="translate(8.794 30.361)" fill="#f5daf5" fill-rule="evenodd"/>
        <path id="Trazado_4644" data-name="Trazado 4644" d="M41.514,183.943a3.642,3.642,0,0,0-3.576,2.067,3.64,3.64,0,0,0-3.574-2.067,3.422,3.422,0,0,0-3.577,3.155c0,3.125,3.577,6.22,7.151,9.346,3.576-3.125,7.153-6.221,7.153-9.346a3.422,3.422,0,0,0-3.577-3.155" transform="translate(-15.295 -90.673)" fill="#f5daf5" fill-rule="evenodd"/>
        <path id="Trazado_4781" data-name="Trazado 4781" d="M41.514,183.943a3.642,3.642,0,0,0-3.576,2.067,3.64,3.64,0,0,0-3.574-2.067,3.422,3.422,0,0,0-3.577,3.155c0,3.125,3.577,6.22,7.151,9.346,3.576-3.125,7.153-6.221,7.153-9.346a3.422,3.422,0,0,0-3.577-3.155" transform="translate(-15.295 46.619)" fill="#f5daf5" fill-rule="evenodd"/>
        <path id="Trazado_4645" data-name="Trazado 4645" d="M131.514,183.943a3.642,3.642,0,0,0-3.576,2.067,3.64,3.64,0,0,0-3.574-2.067,3.422,3.422,0,0,0-3.577,3.155c0,3.125,3.577,6.22,7.151,9.346,3.576-3.125,7.153-6.221,7.153-9.346a3.422,3.422,0,0,0-3.577-3.155" transform="translate(-60.006 -90.673)" fill="#f5daf5" fill-rule="evenodd"/>
        <path id="Trazado_4782" data-name="Trazado 4782" d="M131.514,183.943a3.642,3.642,0,0,0-3.576,2.067,3.64,3.64,0,0,0-3.574-2.067,3.422,3.422,0,0,0-3.577,3.155c0,3.125,3.577,6.22,7.151,9.346,3.576-3.125,7.153-6.221,7.153-9.346a3.422,3.422,0,0,0-3.577-3.155" transform="translate(-60.006 46.619)" fill="#f5daf5" fill-rule="evenodd"/>
        <path id="Trazado_4731" data-name="Trazado 4731" d="M131.514,183.943a3.642,3.642,0,0,0-3.576,2.067,3.64,3.64,0,0,0-3.574-2.067,3.422,3.422,0,0,0-3.577,3.155c0,3.125,3.577,6.22,7.151,9.346,3.576-3.125,7.153-6.221,7.153-9.346a3.422,3.422,0,0,0-3.577-3.155" transform="translate(211.728 -90.673)" fill="#f5daf5" fill-rule="evenodd"/>
        <path id="Trazado_4783" data-name="Trazado 4783" d="M131.514,183.943a3.642,3.642,0,0,0-3.576,2.067,3.64,3.64,0,0,0-3.574-2.067,3.422,3.422,0,0,0-3.577,3.155c0,3.125,3.577,6.22,7.151,9.346,3.576-3.125,7.153-6.221,7.153-9.346a3.422,3.422,0,0,0-3.577-3.155" transform="translate(211.728 46.619)" fill="#f5daf5" fill-rule="evenodd"/>
        <path id="Trazado_4673" data-name="Trazado 4673" d="M131.514,183.943a3.642,3.642,0,0,0-3.576,2.067,3.64,3.64,0,0,0-3.574-2.067,3.422,3.422,0,0,0-3.577,3.155c0,3.125,3.577,6.22,7.151,9.346,3.576-3.125,7.153-6.221,7.153-9.346a3.422,3.422,0,0,0-3.577-3.155" transform="translate(75.861 -90.673)" fill="#f5daf5" fill-rule="evenodd"/>
        <path id="Trazado_4784" data-name="Trazado 4784" d="M131.514,183.943a3.642,3.642,0,0,0-3.576,2.067,3.64,3.64,0,0,0-3.574-2.067,3.422,3.422,0,0,0-3.577,3.155c0,3.125,3.577,6.22,7.151,9.346,3.576-3.125,7.153-6.221,7.153-9.346a3.422,3.422,0,0,0-3.577-3.155" transform="translate(75.861 46.619)" fill="#f5daf5" fill-rule="evenodd"/>
        <path id="Trazado_4707" data-name="Trazado 4707" d="M131.514,183.943a3.642,3.642,0,0,0-3.576,2.067,3.64,3.64,0,0,0-3.574-2.067,3.422,3.422,0,0,0-3.577,3.155c0,3.125,3.577,6.22,7.151,9.346,3.576-3.125,7.153-6.221,7.153-9.346a3.422,3.422,0,0,0-3.577-3.155" transform="translate(347.594 -90.673)" fill="#f5daf5" fill-rule="evenodd"/>
        <path id="Trazado_4785" data-name="Trazado 4785" d="M131.514,183.943a3.642,3.642,0,0,0-3.576,2.067,3.64,3.64,0,0,0-3.574-2.067,3.422,3.422,0,0,0-3.577,3.155c0,3.125,3.577,6.22,7.151,9.346,3.576-3.125,7.153-6.221,7.153-9.346a3.422,3.422,0,0,0-3.577-3.155" transform="translate(347.594 46.619)" fill="#f5daf5" fill-rule="evenodd"/>
        <path id="Trazado_4646" data-name="Trazado 4646" d="M221.514,183.943a3.642,3.642,0,0,0-3.576,2.067,3.64,3.64,0,0,0-3.574-2.067,3.422,3.422,0,0,0-3.577,3.155c0,3.125,3.577,6.22,7.151,9.346,3.576-3.125,7.153-6.221,7.153-9.346a3.422,3.422,0,0,0-3.577-3.155" transform="translate(-104.717 -90.673)" fill="#f5daf5" fill-rule="evenodd"/>
        <path id="Trazado_4786" data-name="Trazado 4786" d="M221.514,183.943a3.642,3.642,0,0,0-3.576,2.067,3.64,3.64,0,0,0-3.574-2.067,3.422,3.422,0,0,0-3.577,3.155c0,3.125,3.577,6.22,7.151,9.346,3.576-3.125,7.153-6.221,7.153-9.346a3.422,3.422,0,0,0-3.577-3.155" transform="translate(-104.717 46.619)" fill="#f5daf5" fill-rule="evenodd"/>
        <path id="Trazado_4722" data-name="Trazado 4722" d="M221.514,183.943a3.642,3.642,0,0,0-3.576,2.067,3.64,3.64,0,0,0-3.574-2.067,3.422,3.422,0,0,0-3.577,3.155c0,3.125,3.577,6.22,7.151,9.346,3.576-3.125,7.153-6.221,7.153-9.346a3.422,3.422,0,0,0-3.577-3.155" transform="translate(167.017 -90.673)" fill="#f5daf5" fill-rule="evenodd"/>
        <path id="Trazado_4787" data-name="Trazado 4787" d="M221.514,183.943a3.642,3.642,0,0,0-3.576,2.067,3.64,3.64,0,0,0-3.574-2.067,3.422,3.422,0,0,0-3.577,3.155c0,3.125,3.577,6.22,7.151,9.346,3.576-3.125,7.153-6.221,7.153-9.346a3.422,3.422,0,0,0-3.577-3.155" transform="translate(167.017 46.619)" fill="#f5daf5" fill-rule="evenodd"/>
        <path id="Trazado_4660" data-name="Trazado 4660" d="M221.514,183.943a3.642,3.642,0,0,0-3.576,2.067,3.64,3.64,0,0,0-3.574-2.067,3.422,3.422,0,0,0-3.577,3.155c0,3.125,3.577,6.22,7.151,9.346,3.576-3.125,7.153-6.221,7.153-9.346a3.422,3.422,0,0,0-3.577-3.155" transform="translate(31.15 -90.673)" fill="#f5daf5" fill-rule="evenodd"/>
        <path id="Trazado_4788" data-name="Trazado 4788" d="M221.514,183.943a3.642,3.642,0,0,0-3.576,2.067,3.64,3.64,0,0,0-3.574-2.067,3.422,3.422,0,0,0-3.577,3.155c0,3.125,3.577,6.22,7.151,9.346,3.576-3.125,7.153-6.221,7.153-9.346a3.422,3.422,0,0,0-3.577-3.155" transform="translate(31.15 46.619)" fill="#f5daf5" fill-rule="evenodd"/>
        <path id="Trazado_4647" data-name="Trazado 4647" d="M311.514,183.943a3.642,3.642,0,0,0-3.576,2.067,3.64,3.64,0,0,0-3.574-2.067,3.422,3.422,0,0,0-3.577,3.155c0,3.125,3.577,6.22,7.151,9.346,3.576-3.125,7.153-6.221,7.153-9.346a3.422,3.422,0,0,0-3.577-3.155" transform="translate(-149.428 -90.673)" fill="#f5daf5" fill-rule="evenodd"/>
        <path id="Trazado_4789" data-name="Trazado 4789" d="M311.514,183.943a3.642,3.642,0,0,0-3.576,2.067,3.64,3.64,0,0,0-3.574-2.067,3.422,3.422,0,0,0-3.577,3.155c0,3.125,3.577,6.22,7.151,9.346,3.576-3.125,7.153-6.221,7.153-9.346a3.422,3.422,0,0,0-3.577-3.155" transform="translate(-149.428 46.619)" fill="#f5daf5" fill-rule="evenodd"/>
        <path id="Trazado_4709" data-name="Trazado 4709" d="M311.514,183.943a3.642,3.642,0,0,0-3.576,2.067,3.64,3.64,0,0,0-3.574-2.067,3.422,3.422,0,0,0-3.577,3.155c0,3.125,3.577,6.22,7.151,9.346,3.576-3.125,7.153-6.221,7.153-9.346a3.422,3.422,0,0,0-3.577-3.155" transform="translate(122.305 -90.673)" fill="#f5daf5" fill-rule="evenodd"/>
        <path id="Trazado_4790" data-name="Trazado 4790" d="M311.514,183.943a3.642,3.642,0,0,0-3.576,2.067,3.64,3.64,0,0,0-3.574-2.067,3.422,3.422,0,0,0-3.577,3.155c0,3.125,3.577,6.22,7.151,9.346,3.576-3.125,7.153-6.221,7.153-9.346a3.422,3.422,0,0,0-3.577-3.155" transform="translate(122.305 46.619)" fill="#f5daf5" fill-rule="evenodd"/>
        <path id="Trazado_4661" data-name="Trazado 4661" d="M311.514,183.943a3.642,3.642,0,0,0-3.576,2.067,3.64,3.64,0,0,0-3.574-2.067,3.422,3.422,0,0,0-3.577,3.155c0,3.125,3.577,6.22,7.151,9.346,3.576-3.125,7.153-6.221,7.153-9.346a3.422,3.422,0,0,0-3.577-3.155" transform="translate(-13.561 -90.673)" fill="#f5daf5" fill-rule="evenodd"/>
        <path id="Trazado_4791" data-name="Trazado 4791" d="M311.514,183.943a3.642,3.642,0,0,0-3.576,2.067,3.64,3.64,0,0,0-3.574-2.067,3.422,3.422,0,0,0-3.577,3.155c0,3.125,3.577,6.22,7.151,9.346,3.576-3.125,7.153-6.221,7.153-9.346a3.422,3.422,0,0,0-3.577-3.155" transform="translate(-13.561 46.619)" fill="#f5daf5" fill-rule="evenodd"/>
        <path id="Trazado_4653" data-name="Trazado 4653" d="M41.514,249.4a3.642,3.642,0,0,0-3.576,2.067,3.64,3.64,0,0,0-3.574-2.067,3.422,3.422,0,0,0-3.577,3.155c0,3.125,3.577,6.22,7.151,9.346,3.576-3.125,7.153-6.221,7.153-9.346a3.422,3.422,0,0,0-3.577-3.155" transform="translate(-15.295 -122.938)" fill="#f5daf5" fill-rule="evenodd"/>
        <path id="Trazado_4792" data-name="Trazado 4792" d="M41.514,249.4a3.642,3.642,0,0,0-3.576,2.067,3.64,3.64,0,0,0-3.574-2.067,3.422,3.422,0,0,0-3.577,3.155c0,3.125,3.577,6.22,7.151,9.346,3.576-3.125,7.153-6.221,7.153-9.346a3.422,3.422,0,0,0-3.577-3.155" transform="translate(-15.295 14.102)" fill="#f5daf5" fill-rule="evenodd"/>
        <path id="Trazado_4654" data-name="Trazado 4654" d="M131.514,249.4a3.642,3.642,0,0,0-3.576,2.067,3.64,3.64,0,0,0-3.574-2.067,3.422,3.422,0,0,0-3.577,3.155c0,3.125,3.577,6.22,7.151,9.346,3.576-3.125,7.153-6.221,7.153-9.346a3.422,3.422,0,0,0-3.577-3.155" transform="translate(-60.006 -122.938)" fill="#f5daf5" fill-rule="evenodd"/>
        <path id="Trazado_4738" data-name="Trazado 4738" d="M131.514,249.4a3.642,3.642,0,0,0-3.576,2.067,3.64,3.64,0,0,0-3.574-2.067,3.422,3.422,0,0,0-3.577,3.155c0,3.125,3.577,6.22,7.151,9.346,3.576-3.125,7.153-6.221,7.153-9.346a3.422,3.422,0,0,0-3.577-3.155" transform="translate(-60.006 14.102)" fill="#f5daf5" fill-rule="evenodd"/>
        <path id="Trazado_4732" data-name="Trazado 4732" d="M131.514,249.4a3.642,3.642,0,0,0-3.576,2.067,3.64,3.64,0,0,0-3.574-2.067,3.422,3.422,0,0,0-3.577,3.155c0,3.125,3.577,6.22,7.151,9.346,3.576-3.125,7.153-6.221,7.153-9.346a3.422,3.422,0,0,0-3.577-3.155" transform="translate(211.728 -122.938)" fill="#f5daf5" fill-rule="evenodd"/>
        <path id="Trazado_4739" data-name="Trazado 4739" d="M131.514,249.4a3.642,3.642,0,0,0-3.576,2.067,3.64,3.64,0,0,0-3.574-2.067,3.422,3.422,0,0,0-3.577,3.155c0,3.125,3.577,6.22,7.151,9.346,3.576-3.125,7.153-6.221,7.153-9.346a3.422,3.422,0,0,0-3.577-3.155" transform="translate(211.728 14.102)" fill="#f5daf5" fill-rule="evenodd"/>
        <path id="Trazado_4674" data-name="Trazado 4674" d="M131.514,249.4a3.642,3.642,0,0,0-3.576,2.067,3.64,3.64,0,0,0-3.574-2.067,3.422,3.422,0,0,0-3.577,3.155c0,3.125,3.577,6.22,7.151,9.346,3.576-3.125,7.153-6.221,7.153-9.346a3.422,3.422,0,0,0-3.577-3.155" transform="translate(75.861 -122.938)" fill="#f5daf5" fill-rule="evenodd"/>
        <path id="Trazado_4740" data-name="Trazado 4740" d="M131.514,249.4a3.642,3.642,0,0,0-3.576,2.067,3.64,3.64,0,0,0-3.574-2.067,3.422,3.422,0,0,0-3.577,3.155c0,3.125,3.577,6.22,7.151,9.346,3.576-3.125,7.153-6.221,7.153-9.346a3.422,3.422,0,0,0-3.577-3.155" transform="translate(75.861 14.102)" fill="#f5daf5" fill-rule="evenodd"/>
        <path id="Trazado_4684" data-name="Trazado 4684" d="M131.514,249.4a3.642,3.642,0,0,0-3.576,2.067,3.64,3.64,0,0,0-3.574-2.067,3.422,3.422,0,0,0-3.577,3.155c0,3.125,3.577,6.22,7.151,9.346,3.576-3.125,7.153-6.221,7.153-9.346a3.422,3.422,0,0,0-3.577-3.155" transform="translate(347.594 -122.938)" fill="#f5daf5" fill-rule="evenodd"/>
        <path id="Trazado_4741" data-name="Trazado 4741" d="M131.514,249.4a3.642,3.642,0,0,0-3.576,2.067,3.64,3.64,0,0,0-3.574-2.067,3.422,3.422,0,0,0-3.577,3.155c0,3.125,3.577,6.22,7.151,9.346,3.576-3.125,7.153-6.221,7.153-9.346a3.422,3.422,0,0,0-3.577-3.155" transform="translate(347.594 14.102)" fill="#f5daf5" fill-rule="evenodd"/>
        <path id="Trazado_4655" data-name="Trazado 4655" d="M221.514,249.4a3.642,3.642,0,0,0-3.576,2.067,3.64,3.64,0,0,0-3.574-2.067,3.422,3.422,0,0,0-3.577,3.155c0,3.125,3.577,6.22,7.151,9.346,3.576-3.125,7.153-6.221,7.153-9.346a3.422,3.422,0,0,0-3.577-3.155" transform="translate(-104.717 -122.938)" fill="#f5daf5" fill-rule="evenodd"/>
        <path id="Trazado_4742" data-name="Trazado 4742" d="M221.514,249.4a3.642,3.642,0,0,0-3.576,2.067,3.64,3.64,0,0,0-3.574-2.067,3.422,3.422,0,0,0-3.577,3.155c0,3.125,3.577,6.22,7.151,9.346,3.576-3.125,7.153-6.221,7.153-9.346a3.422,3.422,0,0,0-3.577-3.155" transform="translate(-104.717 14.102)" fill="#f5daf5" fill-rule="evenodd"/>
        <path id="Trazado_4723" data-name="Trazado 4723" d="M221.514,249.4a3.642,3.642,0,0,0-3.576,2.067,3.64,3.64,0,0,0-3.574-2.067,3.422,3.422,0,0,0-3.577,3.155c0,3.125,3.577,6.22,7.151,9.346,3.576-3.125,7.153-6.221,7.153-9.346a3.422,3.422,0,0,0-3.577-3.155" transform="translate(167.017 -122.938)" fill="#f5daf5" fill-rule="evenodd"/>
        <path id="Trazado_4743" data-name="Trazado 4743" d="M221.514,249.4a3.642,3.642,0,0,0-3.576,2.067,3.64,3.64,0,0,0-3.574-2.067,3.422,3.422,0,0,0-3.577,3.155c0,3.125,3.577,6.22,7.151,9.346,3.576-3.125,7.153-6.221,7.153-9.346a3.422,3.422,0,0,0-3.577-3.155" transform="translate(167.017 14.102)" fill="#f5daf5" fill-rule="evenodd"/>
        <path id="Trazado_4657" data-name="Trazado 4657" d="M221.514,249.4a3.642,3.642,0,0,0-3.576,2.067,3.64,3.64,0,0,0-3.574-2.067,3.422,3.422,0,0,0-3.577,3.155c0,3.125,3.577,6.22,7.151,9.346,3.576-3.125,7.153-6.221,7.153-9.346a3.422,3.422,0,0,0-3.577-3.155" transform="translate(31.15 -122.938)" fill="#f5daf5" fill-rule="evenodd"/>
        <path id="Trazado_4744" data-name="Trazado 4744" d="M221.514,249.4a3.642,3.642,0,0,0-3.576,2.067,3.64,3.64,0,0,0-3.574-2.067,3.422,3.422,0,0,0-3.577,3.155c0,3.125,3.577,6.22,7.151,9.346,3.576-3.125,7.153-6.221,7.153-9.346a3.422,3.422,0,0,0-3.577-3.155" transform="translate(31.15 14.102)" fill="#f5daf5" fill-rule="evenodd"/>
        <path id="Trazado_4656" data-name="Trazado 4656" d="M311.514,249.4a3.642,3.642,0,0,0-3.576,2.067,3.64,3.64,0,0,0-3.574-2.067,3.422,3.422,0,0,0-3.577,3.155c0,3.125,3.577,6.22,7.151,9.346,3.576-3.125,7.153-6.221,7.153-9.346a3.422,3.422,0,0,0-3.577-3.155" transform="translate(-149.428 -122.938)" fill="#f5daf5" fill-rule="evenodd"/>
        <path id="Trazado_4745" data-name="Trazado 4745" d="M311.514,249.4a3.642,3.642,0,0,0-3.576,2.067,3.64,3.64,0,0,0-3.574-2.067,3.422,3.422,0,0,0-3.577,3.155c0,3.125,3.577,6.22,7.151,9.346,3.576-3.125,7.153-6.221,7.153-9.346a3.422,3.422,0,0,0-3.577-3.155" transform="translate(-149.428 14.102)" fill="#f5daf5" fill-rule="evenodd"/>
        <path id="Trazado_4711" data-name="Trazado 4711" d="M311.514,249.4a3.642,3.642,0,0,0-3.576,2.067,3.64,3.64,0,0,0-3.574-2.067,3.422,3.422,0,0,0-3.577,3.155c0,3.125,3.577,6.22,7.151,9.346,3.576-3.125,7.153-6.221,7.153-9.346a3.422,3.422,0,0,0-3.577-3.155" transform="translate(122.305 -122.938)" fill="#f5daf5" fill-rule="evenodd"/>
        <path id="Trazado_4746" data-name="Trazado 4746" d="M311.514,249.4a3.642,3.642,0,0,0-3.576,2.067,3.64,3.64,0,0,0-3.574-2.067,3.422,3.422,0,0,0-3.577,3.155c0,3.125,3.577,6.22,7.151,9.346,3.576-3.125,7.153-6.221,7.153-9.346a3.422,3.422,0,0,0-3.577-3.155" transform="translate(122.305 14.102)" fill="#f5daf5" fill-rule="evenodd"/>
        <path id="Trazado_4658" data-name="Trazado 4658" d="M311.514,249.4a3.642,3.642,0,0,0-3.576,2.067,3.64,3.64,0,0,0-3.574-2.067,3.422,3.422,0,0,0-3.577,3.155c0,3.125,3.577,6.22,7.151,9.346,3.576-3.125,7.153-6.221,7.153-9.346a3.422,3.422,0,0,0-3.577-3.155" transform="translate(-13.561 -122.938)" fill="#f5daf5" fill-rule="evenodd"/>
        <path id="Trazado_4747" data-name="Trazado 4747" d="M311.514,249.4a3.642,3.642,0,0,0-3.576,2.067,3.64,3.64,0,0,0-3.574-2.067,3.422,3.422,0,0,0-3.577,3.155c0,3.125,3.577,6.22,7.151,9.346,3.576-3.125,7.153-6.221,7.153-9.346a3.422,3.422,0,0,0-3.577-3.155" transform="translate(-13.561 14.102)" fill="#f5daf5" fill-rule="evenodd"/>
      </g>
    </g>
  </g>
</svg>
